<?xml version="1.0" encoding="UTF-8"?>
<svg id="Capa_2" data-name="Capa 2" xmlns="http://www.w3.org/2000/svg" viewBox="0 0 1379.39 123.84">
  <defs>
    <style>
      .cls-1 {
        fill: #fff;
      }
    </style>
  </defs>
  <g id="Capa_1-2" data-name="Capa 1">
    <g>
      <path class="cls-1" d="M6.84,55.68L0,11.88h68.16c5.52,0,10.28.88,14.28,2.64,4,1.76,7.06,4.29,9.18,7.59,2.12,3.3,3.18,7.21,3.18,11.73s-1.02,8.37-3.06,11.91-5.22,6.39-9.54,8.55c6.12,1.6,10.75,4.26,13.89,7.98,3.14,3.72,4.71,8.32,4.71,13.8,0,5-1.13,9.45-3.39,13.35-2.26,3.9-5.65,6.95-10.17,9.15-4.52,2.2-10.04,3.3-16.56,3.3H0l6.84-46.2ZM60.84,81.36c2.64,0,4.72-.7,6.24-2.1,1.52-1.4,2.28-3.3,2.28-5.7s-.77-4.15-2.31-5.61-3.69-2.19-6.45-2.19h-25.8l-2.4,15.6h28.44ZM34.68,45.6h21.36c2.12,0,3.87-.65,5.25-1.95,1.38-1.3,2.07-2.93,2.07-4.89s-.66-3.41-1.98-4.59c-1.32-1.18-3.1-1.77-5.34-1.77h-23.52l2.16,13.2Z"/>
      <path class="cls-1" d="M109.38,6.51c1.4-2.1,3.38-3.71,5.94-4.83,2.56-1.12,5.56-1.68,9-1.68s6.44.56,9,1.68c2.56,1.12,4.54,2.73,5.94,4.83,1.4,2.1,2.1,4.57,2.1,7.41s-.7,5.31-2.1,7.41c-1.4,2.1-3.38,3.71-5.94,4.83-2.56,1.12-5.56,1.68-9,1.68s-6.44-.56-9-1.68c-2.56-1.12-4.54-2.73-5.94-4.83-1.4-2.1-2.1-4.57-2.1-7.41s.7-5.31,2.1-7.41ZM124.32,34.56l15.24-3.12v70.44h-30.48V31.44l15.24,3.12Z"/>
      <path class="cls-1" d="M209.64,83.22c-3.4,3.12-7.4,5.59-12,7.41-4.6,1.82-9.68,2.73-15.24,2.73-6.52,0-12.36-1.3-17.52-3.9-5.16-2.6-9.19-6.28-12.09-11.04-2.9-4.76-4.35-10.22-4.35-16.38s1.45-11.62,4.35-16.38c2.9-4.76,6.93-8.44,12.09-11.04,5.16-2.6,11-3.9,17.52-3.9,5.52,0,10.58.99,15.18,2.97,4.6,1.98,8.62,4.63,12.06,7.95v-8.76h30.48v50.64c0,8.16-2.03,15.28-6.09,21.36-4.06,6.08-9.85,10.76-17.37,14.04-7.52,3.28-16.34,4.92-26.46,4.92-6.44,0-12.44-.8-18-2.4-5.56-1.6-11.24-4.08-17.04-7.44v-22.2c4.88,3.52,10.13,6.16,15.75,7.92,5.62,1.76,11.41,2.64,17.37,2.64,7.16,0,12.51-1.37,16.05-4.11,3.54-2.74,5.31-7.41,5.31-14.01v-1.02ZM182.76,70.26c2.48,1.96,5.92,2.94,10.32,2.94,3.96,0,7.43-.96,10.41-2.88,2.98-1.92,5.35-4.68,7.11-8.28-1.88-3.68-4.3-6.46-7.26-8.34s-6.38-2.82-10.26-2.82c-4.28,0-7.69.98-10.23,2.94-2.54,1.96-3.81,4.7-3.81,8.22s1.24,6.26,3.72,8.22Z"/>
      <path class="cls-1" d="M285.6,55.68l-6.84-43.8h68.16c5.52,0,10.28.88,14.28,2.64,4,1.76,7.06,4.29,9.18,7.59,2.12,3.3,3.18,7.21,3.18,11.73s-1.02,8.37-3.06,11.91-5.22,6.39-9.54,8.55c6.12,1.6,10.75,4.26,13.89,7.98,3.14,3.72,4.71,8.32,4.71,13.8,0,5-1.13,9.45-3.39,13.35-2.26,3.9-5.65,6.95-10.17,9.15-4.52,2.2-10.04,3.3-16.56,3.3h-70.68l6.84-46.2ZM339.6,81.36c2.64,0,4.72-.7,6.24-2.1,1.52-1.4,2.28-3.3,2.28-5.7s-.77-4.15-2.31-5.61-3.69-2.19-6.45-2.19h-25.8l-2.4,15.6h28.44ZM313.44,45.6h21.36c2.12,0,3.87-.65,5.25-1.95,1.38-1.3,2.07-2.93,2.07-4.89s-.66-3.41-1.98-4.59c-1.32-1.18-3.1-1.77-5.34-1.77h-23.52l2.16,13.2Z"/>
      <path class="cls-1" d="M447.12,89.94c-3.24,4.52-7.22,8-11.94,10.44-4.72,2.44-9.98,3.66-15.78,3.66-6.68,0-12.58-1.52-17.7-4.56-5.12-3.04-9.09-7.33-11.91-12.87s-4.23-11.93-4.23-19.17,1.41-13.7,4.23-19.26c2.82-5.56,6.79-9.86,11.91-12.9,5.12-3.04,11.02-4.56,17.7-4.56,5.8,0,11.07,1.2,15.81,3.6,4.74,2.4,8.71,5.84,11.91,10.32l1.68-11.76h31.68l-4.8,34.44,4.8,34.56h-31.68l-1.68-11.94ZM417.93,74.46c1.1,2.08,2.63,3.71,4.59,4.89,1.96,1.18,4.2,1.77,6.72,1.77s5.15-.6,7.65-1.8c2.5-1.2,4.68-2.84,6.54-4.92,1.86-2.08,3.17-4.4,3.93-6.96-.76-2.6-2.07-4.95-3.93-7.05-1.86-2.1-4.04-3.75-6.54-4.95-2.5-1.2-5.05-1.8-7.65-1.8s-4.76.6-6.72,1.8c-1.96,1.2-3.49,2.85-4.59,4.95-1.1,2.1-1.65,4.45-1.65,7.05s.55,4.94,1.65,7.02Z"/>
      <path class="cls-1" d="M520.68,9.48v92.4h-30.48V9.48h30.48Z"/>
      <path class="cls-1" d="M562.68,9.48v92.4h-30.48V9.48h30.48Z"/>
      <path class="cls-1" d="M573.12,81l39.24-26.76h-39v-21.36h76.92v20.88l-39.24,26.76h39.48v21.36h-77.4v-20.88Z"/>
      <path class="cls-1" d="M708.24,99.48c-6.88-3.04-12.22-7.33-16.02-12.87-3.8-5.54-5.7-11.93-5.7-19.17s1.9-13.7,5.7-19.26c3.8-5.56,9.14-9.86,16.02-12.9s14.84-4.56,23.88-4.56,17,1.52,23.88,4.56c6.88,3.04,12.22,7.34,16.02,12.9,3.8,5.56,5.7,11.98,5.7,19.26s-1.9,13.63-5.7,19.17c-3.8,5.54-9.14,9.83-16.02,12.87-6.88,3.04-14.84,4.56-23.88,4.56s-17-1.52-23.88-4.56ZM721.14,78.06c2.6,2.52,6.26,3.78,10.98,3.78s8.38-1.26,10.98-3.78c2.6-2.52,3.9-6.06,3.9-10.62s-1.3-8.22-3.9-10.74c-2.6-2.52-6.26-3.78-10.98-3.78s-8.38,1.26-10.98,3.78c-2.6,2.52-3.9,6.1-3.9,10.74s1.3,8.1,3.9,10.62Z"/>
      <path class="cls-1" d="M832.02,30.63c-1.8.66-3.04,1.65-3.72,2.97-.68,1.32-1.02,3.08-1.02,5.28v.36h25.8v22.2h-25.8v40.44h-30.48v-40.44h-13.56v-22.2h13.56c.16-10.48,3.61-18.42,10.35-23.82,6.74-5.4,16.33-8.1,28.77-8.1,3.44,0,6.59.21,9.45.63,2.86.42,6.07,1.09,9.63,2.01v21.84c-5.36-1.44-10.48-2.16-15.36-2.16-3.28,0-5.82.33-7.62.99Z"/>
      <path class="cls-1" d="M892.07,55.68l-6.84-43.8h68.16c5.52,0,10.28.88,14.28,2.64,4,1.76,7.06,4.29,9.18,7.59,2.12,3.3,3.18,7.21,3.18,11.73s-1.02,8.37-3.06,11.91-5.22,6.39-9.54,8.55c6.12,1.6,10.75,4.26,13.89,7.98,3.14,3.72,4.71,8.32,4.71,13.8,0,5-1.13,9.45-3.39,13.35-2.26,3.9-5.65,6.95-10.17,9.15-4.52,2.2-10.04,3.3-16.56,3.3h-70.68l6.84-46.2ZM946.07,81.36c2.64,0,4.72-.7,6.24-2.1,1.52-1.4,2.28-3.3,2.28-5.7s-.77-4.15-2.31-5.61-3.69-2.19-6.45-2.19h-25.8l-2.4,15.6h28.44ZM919.91,45.6h21.36c2.12,0,3.87-.65,5.25-1.95,1.38-1.3,2.07-2.93,2.07-4.89s-.66-3.41-1.98-4.59c-1.32-1.18-3.1-1.77-5.34-1.77h-23.52l2.16,13.2Z"/>
      <path class="cls-1" d="M1053.59,89.94c-3.24,4.52-7.22,8-11.94,10.44-4.72,2.44-9.98,3.66-15.78,3.66-6.68,0-12.58-1.52-17.7-4.56-5.12-3.04-9.09-7.33-11.91-12.87s-4.23-11.93-4.23-19.17,1.41-13.7,4.23-19.26c2.82-5.56,6.79-9.86,11.91-12.9,5.12-3.04,11.02-4.56,17.7-4.56,5.8,0,11.07,1.2,15.81,3.6,4.74,2.4,8.71,5.84,11.91,10.32l1.68-11.76h31.68l-4.8,34.44,4.8,34.56h-31.68l-1.68-11.94ZM1024.41,74.46c1.1,2.08,2.63,3.71,4.59,4.89,1.96,1.18,4.2,1.77,6.72,1.77s5.15-.6,7.65-1.8c2.5-1.2,4.68-2.84,6.54-4.92,1.86-2.08,3.17-4.4,3.93-6.96-.76-2.6-2.07-4.95-3.93-7.05-1.86-2.1-4.04-3.75-6.54-4.95-2.5-1.2-5.05-1.8-7.65-1.8s-4.76.6-6.72,1.8c-1.96,1.2-3.49,2.85-4.59,4.95-1.1,2.1-1.65,4.45-1.65,7.05s.55,4.94,1.65,7.02Z"/>
      <path class="cls-1" d="M1108.13,121.77c-4.36-1.38-8.7-3.69-13.02-6.93v-20.4c4.28,2.72,8.23,4.66,11.85,5.82,3.62,1.16,7.55,1.74,11.79,1.74,3.48,0,6.41-.69,8.79-2.07s4.33-3.81,5.85-7.29h-13.92l-27.72-59.76h33.6l15.72,40.5,16.08-40.5h32.4l-31.44,68.04c-3.76,8.12-8.71,13.97-14.85,17.55-6.14,3.58-12.79,5.37-19.95,5.37-5.76,0-10.82-.69-15.18-2.07Z"/>
      <path class="cls-1" d="M1208.33,99.93c-4.64-2.66-8.19-6.41-10.65-11.25-2.46-4.84-3.69-10.48-3.69-16.92v-38.88h30.48v34.56c0,3.8.98,6.73,2.94,8.79,1.96,2.06,4.74,3.09,8.34,3.09,8.24,0,12.36-4.52,12.36-13.56v-32.88h30.48v44.28l4.8,24.72h-30.48l-2.1-12.9c-3,4.88-6.74,8.59-11.22,11.13-4.48,2.54-9.36,3.81-14.64,3.81-6.44,0-11.98-1.33-16.62-3.99Z"/>
      <path class="cls-1" d="M1318.91,32.88l2.16,13.08c3.04-5,6.86-8.79,11.46-11.37,4.6-2.58,9.62-3.87,15.06-3.87,6.64,0,12.34,1.33,17.1,3.99,4.76,2.66,8.4,6.42,10.92,11.28,2.52,4.86,3.78,10.53,3.78,17.01v38.88h-30.48v-34.56c0-3.84-1.06-6.8-3.18-8.88-2.12-2.08-5.1-3.12-8.94-3.12-4.12,0-7.33,1.2-9.63,3.6-2.3,2.4-3.45,5.76-3.45,10.08v32.88h-30.48v-44.28l-4.8-24.72h30.48Z"/>
    </g>
  </g>
</svg>