<svg width="122" height="51" viewBox="0 0 122 51" fill="none" xmlns="http://www.w3.org/2000/svg">
<path d="M76.0943 9.80795V33.4194L81.2616 37.947V27.5629L83.43 26.5121L85.0909 40.3422L90.2274 39.755L87.6745 18.7859L84.5834 20.2693L92.1805 11.5077L88.2128 8L81.2462 16.298V9.80795H76.0943Z" fill="white"/>
<path fill-rule="evenodd" clip-rule="evenodd" d="M40.2771 9.68427L35.6788 30.6379L40.9384 30.2362L42.0764 24.7814L49.1814 26.713L50.5347 37.2671L55.7174 39.415L52.1034 9.68427H40.2771ZM47.5974 14.9226H44.1525L43.1068 19.7593L48.4586 21.1654L47.5974 14.9226Z" fill="white"/>
<path fill-rule="evenodd" clip-rule="evenodd" d="M26.2209 9.97791L0 14.0728L2.96811 18.8168L6.68978 18.1678V43L26.2209 41.4238V27.0839L22.0686 25.1987L26.2209 22.4327V9.97791ZM11.5341 17.4262L21.3612 15.7882V19.8213L11.5341 26.265V17.4262ZM21.3612 30.1282V36.9582L11.5341 37.7772V32.0906L17.255 28.3511L21.3612 30.1282Z" fill="white"/>
<path d="M28.4508 38.3642L29.2812 12.2649L34.4485 12.4039L33.7718 32.7549L43.0145 31.9205L43.4912 37.1126L28.4508 38.3642Z" fill="white"/>
<path d="M55.7943 15.1082H62.6225L69.3584 32.1524L67.9128 13.3003L73.1415 9.96251L74.987 39.2142H66.6209L61.9304 27.4393L62.8224 38.3797L57.6551 38.8279L55.7943 15.1082Z" fill="white"/>
<path fill-rule="evenodd" clip-rule="evenodd" d="M93.5492 13.7639H105.406L106.837 36.85H91.6576L93.5492 13.7639ZM97.6861 18.647H100.885L101.7 31.998H96.8557L97.6861 18.647Z" fill="white"/>
<path d="M115.295 13.1148L108.113 14.4128L109.682 30.9007L116.648 29.4945L116.802 34.9492L114.341 33.9912L113.911 31.3951L108.82 32.2914L109.682 37.638L122 42.5828L121.677 23.2671L114.218 24.7351L112.988 20.2075L114.864 18.3995L115.295 21.3973L120.385 21.0574V10.2097L115.295 8.06179V13.1148Z" fill="white"/>
</svg>
