<?xml version="1.0" encoding="UTF-8"?>
<svg id="Capa_2" data-name="Capa 2" xmlns="http://www.w3.org/2000/svg" viewBox="0 0 768.24 169.18">
  <defs>
    <style>
      .cls-1 {
        fill: #fcfcfd;
      }
    </style>
  </defs>
  <g id="Capa_1-2" data-name="Capa 1">
    <g>
      <g>
        <g>
          <path class="cls-1" d="M256.19,46.97c-.35-.35-6.53.26-8,0,.25-3.04-1.37-7.29,2.5-8.01,5.01-.92,31.59-.67,36.78.27s1.43,4.95,3.23,8.74c14.5-11.04,30.62-12.76,47.75-6.77,2.29.8,6.53,3.79,8.27,3.75,1.65-.04,6.38-6.39,10.04,1.03,1.2,2.44-24.63,32.74-27.59,37.55-1.03.95-6.72-3.31-6.86-3.68-.85-2.23,4.18-4.48,1.88-6.38-4.52-3.72-14.54-2.93-19.69-.7-4.47,1.94-14.31,11.82-14.31,16.69v65.5h7.01s0,7,0,7h-49v-7.01s8,0,8,0V46.97Z"/>
          <path class="cls-1" d="M364.19,14.97c-5.11-1.71-10.21,3.53-7-9h40v149h8.01s0,7,0,7h-47.5c-1.47,0-2.12-4.57-1.07-6.07,1.17-1.66,5.56-.75,7.57-.93V14.97Z"/>
        </g>
        <g>
          <path class="cls-1" d="M102.19.97v43.5c0,1.72-6.55,2.12-8.06,1.06-1.79-1.25-.6-6.56-.94-6.56h-52v30h45l-15,32h-30v29h52c.69,0-2.16-8.98,9-6v45c-8.01-.18-10.1,2.45-9-7H.19c-.58-7.36-.25-8.01,7.02-8.57V14.97C-.97,16.11-.09,12.69.19,5.97h93c.3,0-.77-4.12.58-5.11,2.19-1.6,6-.61,8.42.11Z"/>
          <path class="cls-1" d="M147.06,30.1c.31.19,2.34,5.28,2.06,6.22-.55,1.83-5.55,2.07-3.52,5.68l30.09,53.96,30.09-54.98c1.48-2.74-2.97-2.84-3.53-4.67-.28-.94,1.74-6.02,2.06-6.22,1.32-.83,3.88.37,5.27.97,7.3,3.15,26.53,13.58,32.93,18.06,5.67,3.96-.66,11.98-6.73,6.91-21.27,35.51-39.12,73.17-60.11,108.92l-59.6-108.88c-1.94-1.14-4.18,2.44-6.25,1.84-2.39-.69-4.92-6.08-.97-8.8,7.35-5.06,21.38-12.31,29.67-16.33,2-.97,6.58-3.92,8.54-2.7Z"/>
        </g>
      </g>
      <path class="cls-1" d="M538.99,100.88c0,34.9-28.29,63.2-63.2,63.2s-63.2-28.29-63.2-63.2,28.29-63.2,63.2-63.2,63.2,28.29,63.2,63.2ZM507.96,100.81c0-17.75-14.39-32.13-32.13-32.13s-32.13,14.39-32.13,32.13,14.39,32.13,32.13,32.13,32.13-14.39,32.13-32.13Z"/>
      <path class="cls-1" d="M475.69,81.99c1.16,0,12.61,17.61,12.52,19.4-.08,1.59-11.36,19.6-12.52,19.56l-12.47-19.47,12.47-19.49Z"/>
      <path class="cls-1" d="M732.19,5.97v33h34.5c.3,0,1.87,1.63,1.49,2.47-6.98,5.53-15.13,25.47-21.42,29.6-3.31,2.18-10.5.34-14.57.93v81.5c0,2.33,7.7,1.19,8.01,1.5.33.33-.24,5.64,0,7h-48v-7.01s7,0,7,0v-83h-23v-31.5c0-.11,1.39-1.5,1.5-1.5h21.5v-15.5c0-1.88,28.83-16.74,33-17.5Z"/>
      <path class="cls-1" d="M671.49,100.84c0,34.89-28.28,63.17-63.17,63.17s-63.17-28.28-63.17-63.17,28.28-63.17,63.17-63.17,63.17,28.28,63.17,63.17ZM640.54,100.82c0-17.75-14.39-32.14-32.14-32.14s-32.14,14.39-32.14,32.14,14.39,32.14,32.14,32.14,32.14-14.39,32.14-32.14Z"/>
      <path class="cls-1" d="M610.07,83.1c.81,4.21,11.1,15.1,10.94,18.19-.11,2.03-11.17,18.97-13.2,18.62l-12.29-18.46c-.06-1,9.69-16.11,10.65-17.01,1.2-1.13,2.09-2.03,3.9-1.35Z"/>
    </g>
  </g>
</svg>