<svg width="312" height="51" viewBox="0 0 312 51" fill="none" xmlns="http://www.w3.org/2000/svg">
<path fill-rule="evenodd" clip-rule="evenodd" d="M256.582 16.8716L256.701 25.5288L252.125 27.8168L252.076 27.7214L251.759 27.8856L256.582 16.8716ZM286.732 30.9045L275.102 36.8463L276.998 23.1929L280.348 2.9021L273.964 0.5L269.16 25.0257L266.062 41.2079L263.089 42.8298L263.219 28.1865L265.479 27.0087L267.454 26.026L267.417 25.9986L267.707 25.8475L263.345 22.8135L263.788 11.1828L264.736 1.38489L255.128 3.02828L250.703 13.0156L250.513 14.1537L242.632 32.5634L235.263 36.2477L237.399 40.9772L237.524 40.9151L237.552 40.9772L242.142 42.2253L234.485 45.7524L236.049 49.2758L247.773 43.876L247.713 43.7396L247.874 43.7835L247.963 40.4157L242.308 38.5353L254.959 32.2418L256.834 31.5364L257.909 48.5404L263.029 49.5516L263.071 44.8612L265.114 45.9488L265.177 46.9601L268.275 48.0977L272.7 49.6149L273.964 44.1155L276.429 42.9146L293.559 34.3179L286.732 30.9045ZM239.705 3.09156L246.784 8.3382L236.165 31.5997L228.769 49.8677L223.775 48.414L224.218 46.8335H223.08L222.006 29.0081L221.247 8.97012L227.126 10.4242L228.643 33.0536L233.004 20.9171L239.705 3.09156ZM197.164 15.5443C195.984 16.8085 194.74 18.1361 193.434 19.5267C192.128 20.9173 190.99 22.1399 190.021 23.193L189.263 23.2561L191.538 13.0791L201.336 10.9931C199.945 12.5527 198.555 14.0697 197.164 15.5443ZM212.461 9.53934L204.559 3.59749L188.125 7.76936L177.632 9.9187L182.12 15.0385L184.079 14.9124L183.194 19.906L178.074 47.5291L183.573 50.5L187.809 30.7781C188.356 31.579 188.904 32.4011 189.452 33.2433C189.999 34.0869 190.505 34.8771 190.969 35.6137C191.433 36.3514 191.843 36.9947 192.202 37.5417C192.56 38.0899 192.802 38.4899 192.929 38.7427C193.182 39.122 193.624 39.8283 194.256 40.8602C194.888 41.8935 195.53 42.968 196.184 44.0843C196.837 45.2011 197.427 46.2234 197.954 47.1499C198.48 48.0773 198.765 48.6669 198.807 48.9197L203.169 41.5239L197.48 32.3584L193.751 27.3016L205.065 15.8603L212.461 9.53934ZM213.346 5.05121L206.898 48.0977L212.65 49.9941L216.506 30.7779L221.5 6.94736L213.346 5.05121ZM297.415 20.7277L304.115 34.6339L306.454 39.6909L309.299 41.2712L304.684 46.1383L301.271 46.5174L289.324 49.9943L286.037 47.4658L284.267 46.3279L290.841 43.7364L299.185 40.8285L296.151 34.8867L288.439 20.6011L292.927 15.734L293.559 16.1764L296.846 13.964L303.546 8.71756L303.863 9.28618L304.811 4.22942L311.574 7.32673L308.793 18.515L307.782 21.7387L302.472 22.1814L302.914 16.9349L297.415 20.7277ZM42.0313 6.15229V47.6667H54.9532V32.673H64.2549L67.5615 23.6007H54.9532V15.1966H70.6139L73.9099 6.15229H42.0313ZM77.864 47.6667L77.8632 6.15229H90.7851V47.6667H77.864ZM99.6762 6.15229V47.6667H112.598V32.673H121.9L125.206 23.6007H112.598V15.1966H128.259L131.555 6.15229H99.6762ZM146.512 16.8185L151.677 34.112H141.52L146.512 16.8185ZM155.502 47.6667H168.551L153.433 6.15208H139.999L124.873 47.6667H137.596L139.213 42.0899H153.814L155.502 47.6667ZM160.197 8.23036H160.619C160.69 8.23036 160.757 8.22627 160.82 8.2179C160.883 8.20933 160.939 8.19279 160.987 8.16727C161.036 8.14215 161.074 8.10459 161.104 8.05415C161.133 8.00352 161.148 7.93431 161.148 7.84631C161.148 7.77056 161.132 7.70992 161.101 7.66357C161.069 7.61743 161.028 7.5817 160.978 7.55638C160.927 7.53127 160.872 7.51452 160.811 7.50615C160.75 7.49778 160.688 7.4937 160.625 7.4937H160.197V8.23036ZM159.718 7.12823H160.676C160.986 7.12823 161.222 7.18621 161.384 7.30137C161.545 7.41693 161.627 7.6113 161.627 7.88387C161.627 8.10663 161.568 8.27242 161.45 8.38165C161.333 8.49068 161.167 8.55581 160.953 8.57684L161.646 9.70408H161.154L160.487 8.59562H160.197V9.70408H159.718V7.12823ZM160.594 10.2582C160.833 10.2582 161.057 10.2131 161.264 10.1226C161.472 10.0326 161.654 9.90539 161.809 9.74165C161.964 9.5779 162.087 9.38394 162.177 9.15914C162.268 8.93475 162.313 8.68995 162.313 8.42555C162.313 8.16114 162.268 7.91675 162.177 7.69195C162.087 7.46756 161.964 7.27319 161.809 7.10944C161.654 6.9457 161.472 6.8187 161.264 6.72846C161.057 6.63821 160.833 6.59289 160.594 6.59289C160.355 6.59289 160.131 6.63821 159.923 6.72846C159.715 6.8187 159.534 6.9457 159.378 7.10944C159.223 7.27319 159.1 7.46756 159.01 7.69195C158.919 7.91675 158.874 8.16114 158.874 8.42555C158.874 8.68995 158.919 8.93475 159.01 9.15914C159.1 9.38394 159.223 9.5779 159.378 9.74165C159.534 9.90539 159.715 10.0326 159.923 10.1226C160.131 10.2131 160.355 10.2582 160.594 10.2582ZM160.594 10.699C160.279 10.699 159.984 10.639 159.709 10.5193C159.434 10.3999 159.193 10.2372 158.988 10.0314C158.782 9.82577 158.619 9.58525 158.5 9.31043C158.38 9.03541 158.32 8.74059 158.32 8.42555C158.32 8.11071 158.38 7.81568 158.5 7.54086C158.619 7.26584 158.782 7.02553 158.988 6.81972C159.193 6.61412 159.434 6.45119 159.709 6.33154C159.984 6.2121 160.279 6.15228 160.594 6.15228C160.908 6.15228 161.203 6.2121 161.478 6.33154C161.753 6.45119 161.994 6.61412 162.199 6.81972C162.405 7.02553 162.568 7.26584 162.688 7.54086C162.807 7.81568 162.867 8.11071 162.867 8.42555C162.867 8.74059 162.807 9.03541 162.688 9.31043C162.568 9.58525 162.405 9.82577 162.199 10.0314C161.994 10.2372 161.753 10.3999 161.478 10.5193C161.203 10.639 160.908 10.699 160.594 10.699ZM0.35812 26.7142H32.5928V6.65705H0.35812V26.7142ZM0.35812 47.1295H32.5928V27.0723H0.35812V47.1295ZM32.9509 47.4876H0V6.29892H32.9509V47.4876ZM4.70271 12.6787V20.2H7.04377V17.4837H8.72901L9.32826 15.8399H7.04377V14.3174H9.88116L10.4784 12.6787H4.70271ZM11.1948 20.2L11.1946 12.6787H13.5357V20.2H11.1948ZM15.1466 12.6787V20.2H17.4877V17.4837H19.1729L19.772 15.8399H17.4877V14.3174H20.3251L20.9223 12.6787H15.1466ZM23.6322 14.611L24.568 17.7442H22.7277L23.6322 14.611ZM25.2611 20.2H27.6252L24.8863 12.6785H22.4521L19.7117 20.2H22.0168L22.3098 19.1896H24.9551L25.2611 20.2ZM26.1115 13.0552H26.1879C26.201 13.0552 26.213 13.0544 26.2244 13.053C26.2359 13.0513 26.2461 13.0485 26.2547 13.0438C26.2634 13.0393 26.2706 13.0323 26.2759 13.0234C26.2812 13.0142 26.2839 13.0015 26.2839 12.9856C26.2839 12.9719 26.281 12.9609 26.2753 12.9525C26.2696 12.9441 26.2622 12.9376 26.253 12.9331C26.2438 12.9286 26.2338 12.9256 26.2228 12.9239C26.2118 12.9225 26.2006 12.9217 26.1891 12.9217H26.1115V13.0552ZM26.0248 12.8555H26.1983C26.2545 12.8555 26.2973 12.8659 26.3265 12.887C26.3559 12.9078 26.3706 12.9431 26.3706 12.9925C26.3706 13.0328 26.3598 13.0628 26.3386 13.0826C26.3173 13.1024 26.2873 13.1142 26.2485 13.1179L26.3739 13.3223H26.2849L26.164 13.1214H26.1115V13.3223H26.0248V12.8555ZM26.1834 13.4225C26.2267 13.4225 26.2673 13.4144 26.3049 13.398C26.3427 13.3817 26.3755 13.3586 26.4037 13.329C26.4317 13.2994 26.4539 13.2643 26.4703 13.2235C26.4866 13.1828 26.495 13.1385 26.495 13.0905C26.495 13.0428 26.4866 12.9985 26.4703 12.9576C26.4539 12.917 26.4317 12.8819 26.4037 12.8521C26.3755 12.8225 26.3427 12.7994 26.3049 12.7831C26.2673 12.7667 26.2267 12.7586 26.1834 12.7586C26.1401 12.7586 26.0995 12.7667 26.0619 12.7831C26.0243 12.7994 25.9913 12.8225 25.9631 12.8521C25.9351 12.8819 25.9129 12.917 25.8965 12.9576C25.88 12.9985 25.8718 13.0428 25.8718 13.0905C25.8718 13.1385 25.88 13.1828 25.8965 13.2235C25.9129 13.2643 25.9351 13.2994 25.9631 13.329C25.9913 13.3586 26.0243 13.3817 26.0619 13.398C26.0995 13.4144 26.1401 13.4225 26.1834 13.4225ZM26.1834 13.5026C26.1264 13.5026 26.0729 13.4915 26.0231 13.4699C25.9733 13.4482 25.9298 13.4188 25.8925 13.3815C25.8553 13.3443 25.8257 13.3006 25.804 13.2508C25.7824 13.201 25.7716 13.1477 25.7716 13.0905C25.7716 13.0336 25.7824 12.9801 25.804 12.9303C25.8257 12.8804 25.8553 12.837 25.8925 12.7996C25.9298 12.7624 25.9733 12.7328 26.0231 12.7112C26.0729 12.6895 26.1264 12.6787 26.1834 12.6787C26.2404 12.6787 26.2939 12.6895 26.3437 12.7112C26.3935 12.7328 26.437 12.7624 26.4743 12.7996C26.5117 12.837 26.5411 12.8804 26.5628 12.9303C26.5844 12.9801 26.5952 13.0336 26.5952 13.0905C26.5952 13.1477 26.5844 13.201 26.5628 13.2508C26.5411 13.3006 26.5117 13.3443 26.4743 13.3815C26.437 13.4188 26.3935 13.4482 26.3437 13.4699C26.2939 13.4915 26.2404 13.5026 26.1834 13.5026ZM7.67051 32.4683C7.64805 32.3679 7.63703 32.2641 7.63703 32.1576C7.63703 32.0457 7.64805 31.9401 7.67051 31.8397C7.69297 31.7388 7.72747 31.6508 7.77464 31.5752C7.8216 31.4997 7.88285 31.4395 7.95697 31.3946C8.03149 31.35 8.12092 31.3276 8.22505 31.3276C8.32938 31.3276 8.41819 31.35 8.49292 31.3946C8.56744 31.4395 8.62808 31.4997 8.67504 31.5752C8.72221 31.6508 8.75671 31.7388 8.77917 31.8397C8.80163 31.9401 8.81266 32.0457 8.81266 32.1576C8.81266 32.2641 8.80163 32.3679 8.77917 32.4683C8.75671 32.5688 8.72221 32.6572 8.67504 32.7341C8.62808 32.8111 8.56744 32.8728 8.49292 32.9183C8.41819 32.9646 8.32938 32.9871 8.22505 32.9871C8.12092 32.9871 8.03149 32.9646 7.95697 32.9183C7.88285 32.8728 7.8216 32.8111 7.77464 32.7341C7.72747 32.6572 7.69297 32.5688 7.67051 32.4683ZM7.00633 31.5959C6.95039 31.7617 6.92283 31.9491 6.92283 32.1576C6.92283 32.3636 6.95039 32.5496 7.00633 32.7156C7.06228 32.882 7.14497 33.0234 7.25543 33.1396C7.36588 33.2562 7.50166 33.3456 7.66275 33.4077C7.82446 33.4694 8.01128 33.5006 8.22505 33.5006C8.43596 33.5006 8.62237 33.4694 8.78489 33.4077C8.94741 33.3456 9.0838 33.2562 9.19426 33.1396C9.30471 33.0234 9.38781 32.882 9.44335 32.7156C9.49929 32.5496 9.52685 32.3636 9.52685 32.1576C9.52685 31.9491 9.49929 31.7617 9.44335 31.5959C9.38781 31.4299 9.30512 31.2888 9.19609 31.1734C9.08666 31.0579 8.95088 30.9695 8.78877 30.9074C8.62625 30.8453 8.43841 30.8143 8.22505 30.8143C8.01128 30.8143 7.82344 30.8453 7.66132 30.9074C7.4988 30.9695 7.36303 31.0579 7.25359 31.1734C7.14456 31.2888 7.06228 31.4299 7.00633 31.5959ZM10.0815 30.8591H11.8188V31.3502H10.7733V31.9196H11.7745V32.4107H10.7733V33.4562H10.0815V30.8591ZM14.0735 30.8591H12.3362V33.4562H13.028V32.4107H14.0292V31.9196H13.028V31.3502H14.0735V30.8591ZM14.6431 30.8591H15.3355V33.4562H14.6431V30.8591ZM17.8764 33.4673C17.9954 33.4453 18.1045 33.4214 18.2039 33.3965L18.1704 32.8534C18.0763 32.8907 17.973 32.9222 17.8615 32.9485C17.7502 32.9742 17.6369 32.9873 17.5232 32.9873C17.3964 32.9873 17.2798 32.9691 17.173 32.9318C17.0665 32.8944 16.9752 32.8405 16.8996 32.7697C16.8241 32.699 16.7643 32.6129 16.7214 32.511C16.6779 32.4097 16.6559 32.2954 16.6559 32.1688C16.6559 32.0473 16.6755 31.935 16.7136 31.8321C16.7518 31.7294 16.8069 31.6404 16.8776 31.5663C16.948 31.4917 17.033 31.4333 17.1324 31.3913C17.2314 31.3488 17.3433 31.3278 17.4672 31.3278C17.5863 31.3278 17.701 31.3431 17.8113 31.3727C17.9217 31.4023 18.0328 31.4483 18.1441 31.5103L18.2 30.9484C18.0738 30.9113 17.9473 30.8796 17.8205 30.8535C17.6943 30.8274 17.5638 30.8145 17.4299 30.8145C17.2167 30.8145 17.0187 30.8425 16.8366 30.8982C16.6544 30.9542 16.4966 31.0385 16.3641 31.1514C16.2312 31.2641 16.1275 31.4052 16.0533 31.5755C15.9788 31.7451 15.9415 31.943 15.9415 32.1688C15.9415 32.4144 15.987 32.6225 16.0772 32.7921C16.1681 32.962 16.2843 33.0992 16.4274 33.2033C16.5697 33.3075 16.73 33.383 16.9074 33.4304C17.0846 33.4773 17.2602 33.5006 17.4338 33.5006C17.6096 33.5006 17.7574 33.4898 17.8764 33.4673ZM18.7398 30.8591H19.4316V33.4562H18.7398V30.8591ZM21.3255 31.3945H21.333L21.642 32.4104H20.9906L21.3255 31.3945ZM21.7571 30.8589H20.909L19.9232 33.456H20.626L20.8306 32.9015H21.8055L21.9991 33.456H22.7582L21.7571 30.8589ZM23.2158 30.8591H23.9082V32.9427H24.9795V33.4562H23.2158V30.8591ZM7.61507 35.2653H6.92272V37.8624H8.68637V37.3489H7.61507V35.2653ZM9.21086 35.2653H9.90321V37.8624H9.21086V35.2653ZM12.4443 37.8731C12.5633 37.8512 12.6723 37.8274 12.7718 37.8024L12.7383 37.2593C12.6441 37.2967 12.5408 37.3281 12.4294 37.3545C12.3181 37.3802 12.2048 37.3933 12.091 37.3933C11.9643 37.3933 11.8477 37.3751 11.7409 37.3377C11.6343 37.3004 11.543 37.2465 11.4675 37.1756C11.392 37.105 11.3321 37.0188 11.2893 36.9169C11.2458 36.8157 11.2237 36.7013 11.2237 36.5747C11.2237 36.4533 11.2433 36.341 11.2815 36.2381C11.3197 36.1354 11.3748 36.0463 11.4454 35.9722C11.5159 35.8977 11.6008 35.8393 11.7003 35.7973C11.7993 35.7552 11.9112 35.7338 12.0351 35.7338C12.1541 35.7338 12.2689 35.7491 12.3793 35.7787C12.4896 35.8083 12.6007 35.8542 12.7119 35.9163L12.7679 35.3546C12.6417 35.3172 12.5151 35.2858 12.3883 35.2595C12.2621 35.2335 12.1317 35.2203 11.9977 35.2203C11.7846 35.2203 11.5865 35.2484 11.4044 35.3044C11.2223 35.3599 11.0645 35.4444 10.932 35.5574C10.799 35.6701 10.6953 35.8116 10.6212 35.9814C10.5467 36.1511 10.5093 36.3489 10.5093 36.5747C10.5093 36.8204 10.5548 37.0284 10.6451 37.1981C10.7359 37.3678 10.8521 37.5052 10.9952 37.6093C11.1376 37.7134 11.2978 37.789 11.4753 37.8363C11.6525 37.8833 11.8281 37.9066 12.0016 37.9066C12.1774 37.9066 12.3252 37.8957 12.4443 37.8731ZM13.2556 35.2653H15.0862V35.7564H13.9479V36.2923H15.0231V36.7834H13.9479V37.3714H15.1272V37.8624H13.2556V35.2653ZM16.6266 35.2653H15.7446V37.8624H16.381L16.359 36.0877H16.3661L17.2741 37.8624H18.1336V35.2653H17.5011L17.5121 37.029H17.505L16.6266 35.2653ZM18.8216 37.222C18.9111 37.2718 19.0162 37.3128 19.1381 37.3449C19.2596 37.3774 19.3921 37.3931 19.5358 37.3931C19.5903 37.3931 19.644 37.3902 19.6961 37.3841C19.7482 37.3778 19.7941 37.3655 19.8337 37.3467C19.8735 37.3281 19.905 37.3022 19.9285 37.2687C19.9523 37.2355 19.9638 37.1924 19.9638 37.1403C19.9638 37.0584 19.9338 36.9964 19.8729 36.9543C19.8123 36.9122 19.7361 36.8753 19.6459 36.8449C19.5554 36.8136 19.4566 36.7826 19.3498 36.7516C19.2432 36.7205 19.1448 36.677 19.0544 36.6215C18.9635 36.5656 18.8882 36.4904 18.8273 36.3963C18.7667 36.3022 18.7361 36.1754 18.7361 36.0167C18.7361 35.8603 18.771 35.7309 18.8402 35.628C18.9096 35.5247 18.9984 35.4434 19.1067 35.3842C19.2141 35.3244 19.3351 35.2823 19.4691 35.2574C19.6028 35.2331 19.7357 35.2203 19.8672 35.2203C19.994 35.2203 20.1153 35.2292 20.2321 35.2464C20.3486 35.2638 20.4501 35.2876 20.5371 35.3172L20.4922 35.8532C20.4032 35.8107 20.3094 35.7805 20.2114 35.7619C20.1134 35.7432 20.015 35.7338 19.9156 35.7338C19.8711 35.7338 19.8219 35.7356 19.7688 35.7395C19.7153 35.7432 19.6651 35.7534 19.6181 35.7691C19.5707 35.7852 19.5311 35.8097 19.4991 35.8418C19.4666 35.8742 19.4503 35.9187 19.4503 35.9755C19.4503 36.0453 19.4809 36.0984 19.5415 36.1358C19.6024 36.1729 19.6779 36.205 19.7688 36.2323C19.859 36.2595 19.9577 36.2883 20.0642 36.3179C20.1712 36.3481 20.2698 36.391 20.3601 36.4484C20.4509 36.5053 20.5265 36.5809 20.5873 36.675C20.648 36.7697 20.6786 36.8949 20.6786 37.0509C20.6786 37.2195 20.6461 37.3592 20.5816 37.4696C20.5169 37.5801 20.4313 37.6675 20.3248 37.7322C20.2182 37.7967 20.0963 37.8416 19.9585 37.868C19.8209 37.8937 19.6798 37.9066 19.5358 37.9066C19.4146 37.9066 19.2845 37.8976 19.1452 37.8788C19.0066 37.8602 18.8786 37.8325 18.7624 37.7953L18.8216 37.222ZM23.0858 35.2653H21.2552V37.8624H23.1264V37.3714H21.9469V36.7834H23.0223V36.2923H21.9469V35.7564H23.0858V35.2653ZM23.7331 35.2653H24.6783C24.9041 35.2653 25.1111 35.2849 25.2994 35.3245C25.4882 35.3644 25.6499 35.4332 25.7851 35.5312C25.9205 35.6292 26.0256 35.7617 26.1016 35.9275C26.1771 36.0939 26.2149 36.3023 26.2149 36.5528C26.2149 36.7958 26.1763 37.0004 26.0997 37.1668C26.0227 37.3326 25.9162 37.4673 25.7794 37.5702C25.6432 37.6729 25.4807 37.7477 25.2922 37.7936C25.1038 37.8393 24.8992 37.8624 24.6783 37.8624H23.7331V35.2653ZM24.4255 37.3489H24.6932C24.9537 37.3489 25.1532 37.2834 25.2922 37.1519C25.4308 37.0204 25.5007 36.8244 25.5007 36.5639C25.5007 36.3033 25.4298 36.1073 25.2883 35.9759C25.1468 35.8444 24.9484 35.7788 24.6932 35.7788H24.4255V37.3489ZM7.79326 40.8694H7.61502V40.1623H7.79326C7.85308 40.1623 7.90903 40.1681 7.96109 40.1791C8.01336 40.1905 8.05828 40.2097 8.09687 40.2369C8.13525 40.264 8.16588 40.2999 8.18772 40.3445C8.21018 40.3894 8.22121 40.4453 8.22121 40.5123C8.22121 40.5793 8.21018 40.6356 8.18772 40.6815C8.16588 40.7275 8.13525 40.7646 8.09687 40.7928C8.05828 40.8216 8.01336 40.8412 7.96109 40.8526C7.90903 40.8637 7.85308 40.8694 7.79326 40.8694ZM7.74895 39.6713H6.92266V42.2684H7.61502V41.3604H7.88269C8.20794 41.3604 8.4607 41.2867 8.64201 41.1391C8.8227 40.9913 8.91356 40.7863 8.91356 40.5233C8.91356 40.2307 8.81944 40.0155 8.63057 39.8777C8.44212 39.7401 8.14811 39.6713 7.74895 39.6713ZM10.093 40.7504H10.2751C10.3296 40.7504 10.3874 40.7485 10.4483 40.7446C10.5089 40.7408 10.5634 40.7293 10.6118 40.7093C10.6606 40.6897 10.7006 40.6595 10.7327 40.6199C10.7651 40.5801 10.7811 40.5233 10.7811 40.4486C10.7811 40.3894 10.7672 40.3406 10.7384 40.302C10.7098 40.2636 10.6724 40.2344 10.6265 40.2144C10.5808 40.1948 10.5277 40.1809 10.4668 40.1738C10.4062 40.166 10.3421 40.1623 10.2751 40.1623H10.093V40.7504ZM9.40064 39.6713H10.6361C10.7504 39.6713 10.858 39.6842 10.9597 39.7105C11.0616 39.7362 11.1506 39.7764 11.2276 39.8314C11.3046 39.8859 11.3648 39.9539 11.4083 40.0362C11.4518 40.1178 11.4732 40.2144 11.4732 40.3263C11.4732 40.4998 11.4322 40.6423 11.3505 40.7542C11.2686 40.8655 11.1435 40.9411 10.9746 40.9809V40.9884C11.0291 41.0033 11.073 41.0266 11.1065 41.0593C11.14 41.0913 11.1692 41.1313 11.1941 41.1801C11.219 41.2285 11.2419 41.2845 11.2629 41.3476C11.2839 41.4107 11.3107 41.4819 11.3431 41.5611L11.5961 42.2684H10.8742L10.7255 41.7994C10.6906 41.6879 10.6577 41.596 10.6265 41.5244C10.5959 41.4523 10.5626 41.3953 10.5262 41.3533C10.4903 41.3106 10.4493 41.2816 10.4037 41.2657C10.3574 41.2496 10.3025 41.2414 10.238 41.2414H10.093V42.2684H9.40064V39.6713ZM12.7383 41.2807C12.7159 41.1802 12.7048 41.0765 12.7048 40.9699C12.7048 40.858 12.7159 40.7525 12.7383 40.652C12.7608 40.5512 12.7953 40.4632 12.8424 40.3876C12.8894 40.3121 12.9507 40.2518 13.0248 40.2073C13.0993 40.1624 13.1887 40.14 13.2929 40.14C13.3972 40.14 13.486 40.1624 13.5605 40.2073C13.6353 40.2518 13.6959 40.3121 13.7429 40.3876C13.7902 40.4632 13.8245 40.5512 13.847 40.652C13.8694 40.7525 13.8805 40.858 13.8805 40.9699C13.8805 41.0765 13.8694 41.1802 13.847 41.2807C13.8245 41.3811 13.7902 41.4695 13.7429 41.5465C13.6959 41.6235 13.6353 41.6851 13.5605 41.7307C13.486 41.777 13.3972 41.7995 13.2929 41.7995C13.1887 41.7995 13.0993 41.777 13.0248 41.7307C12.9507 41.6851 12.8894 41.6235 12.8424 41.5465C12.7953 41.4695 12.7608 41.3811 12.7383 41.2807ZM12.0741 40.4082C12.0182 40.574 11.9906 40.7615 11.9906 40.9699C11.9906 41.1759 12.0182 41.3619 12.0741 41.5279C12.1301 41.6943 12.2128 41.8358 12.3232 41.952C12.4337 42.0686 12.5695 42.158 12.7306 42.2201C12.8923 42.2817 13.0791 42.313 13.2929 42.313C13.5038 42.313 13.6902 42.2817 13.8527 42.2201C14.0152 42.158 14.1516 42.0686 14.2621 41.952C14.3725 41.8358 14.4556 41.6943 14.5112 41.5279C14.5671 41.3619 14.5947 41.1759 14.5947 40.9699C14.5947 40.7615 14.5671 40.574 14.5112 40.4082C14.4556 40.2418 14.3729 40.1012 14.2639 39.9856C14.1545 39.8702 14.0187 39.7818 13.8566 39.7198C13.6941 39.6575 13.5062 39.6265 13.2929 39.6265C13.0791 39.6265 12.8912 39.6575 12.7291 39.7198C12.5666 39.7818 12.4308 39.8702 12.3214 39.9856C12.2124 40.1012 12.1301 40.2418 12.0741 40.4082ZM15.8603 41.7549H16.1279C16.3887 41.7549 16.5879 41.6894 16.727 41.5579C16.8656 41.4264 16.9355 41.2304 16.9355 40.9698C16.9355 40.7093 16.8648 40.5133 16.7233 40.3818C16.5816 40.2503 16.3834 40.1848 16.1279 40.1848H15.8603V41.7549ZM15.1679 39.6713H16.1132C16.3389 39.6713 16.5459 39.6909 16.7341 39.7307C16.923 39.7703 17.0847 39.8391 17.2201 39.9371C17.3552 40.0351 17.4604 40.1676 17.5365 40.3334C17.6121 40.4998 17.6499 40.7083 17.6499 40.9588C17.6499 41.2018 17.6111 41.4064 17.5345 41.5728C17.4575 41.7386 17.3509 41.8735 17.2144 41.9762C17.078 42.0791 16.9154 42.1536 16.727 42.1996C16.5387 42.2453 16.3342 42.2684 16.1132 42.2684H15.1679V39.6713ZM20.4065 41.7441C20.461 41.6149 20.4887 41.461 20.4887 41.2827V39.6716H19.7964V41.167C19.7964 41.2539 19.7899 41.3354 19.776 41.4109C19.7625 41.4865 19.7386 41.5539 19.7051 41.6116C19.6716 41.67 19.6267 41.716 19.5694 41.7493C19.5124 41.7827 19.4393 41.7995 19.3499 41.7995C19.2604 41.7995 19.1873 41.7827 19.1304 41.7493C19.0736 41.716 19.0281 41.67 18.9946 41.6116C18.9613 41.5539 18.9378 41.4865 18.924 41.4109C18.9105 41.3354 18.9033 41.2539 18.9033 41.167V39.6716H18.2116V41.2827C18.2116 41.461 18.2388 41.6149 18.2933 41.7441C18.3478 41.8732 18.4254 41.9798 18.5256 42.0639C18.6265 42.148 18.7465 42.2107 18.8866 42.2517C19.0267 42.293 19.1812 42.313 19.3499 42.313C19.5187 42.313 19.6731 42.293 19.8131 42.2517C19.9532 42.2107 20.0737 42.148 20.1741 42.0639C20.2746 41.9798 20.3519 41.8732 20.4065 41.7441ZM23.2866 42.2086C23.1871 42.2335 23.0781 42.2574 22.9591 42.2795C22.84 42.3019 22.6922 42.3128 22.5164 42.3128C22.3429 42.3128 22.1673 42.2895 21.9899 42.2425C21.8126 42.1952 21.6524 42.1196 21.5098 42.0155C21.3669 41.9112 21.2507 41.7739 21.1599 41.6043C21.0696 41.4346 21.0241 41.2266 21.0241 40.9809C21.0241 40.7551 21.0615 40.5573 21.136 40.3876C21.2101 40.2177 21.3138 40.0762 21.4468 39.9635C21.5793 39.8506 21.7371 39.7661 21.9192 39.7106C22.1013 39.6546 22.2994 39.6264 22.5125 39.6264C22.6465 39.6264 22.7769 39.6397 22.9031 39.6656C23.0297 39.692 23.1565 39.7234 23.2827 39.7608L23.2267 40.3225C23.1155 40.2604 23.0044 40.2145 22.8939 40.1849C22.7837 40.1553 22.6689 40.1399 22.5499 40.1399C22.426 40.1399 22.3141 40.1614 22.2151 40.2034C22.1156 40.2455 22.0307 40.3039 21.9602 40.3784C21.8896 40.4525 21.8345 40.5416 21.7963 40.6443C21.7581 40.7472 21.7385 40.8595 21.7385 40.9809C21.7385 41.1075 21.7606 41.2219 21.8041 41.3231C21.8469 41.425 21.9068 41.511 21.9823 41.5818C22.0578 41.6527 22.1491 41.7066 22.2557 41.7439C22.3625 41.7813 22.4791 41.7995 22.6056 41.7995C22.7196 41.7995 22.8329 41.7864 22.9442 41.7607C23.0556 41.7343 23.159 41.7029 23.2531 41.6655L23.2866 42.2086ZM23.5955 40.1848H24.2351V42.2684H24.9275V40.1848H25.5676V39.6713H23.5955V40.1848Z" fill="white"/>
</svg>
