<svg width="134" height="39" viewBox="0 0 134 39" fill="none" xmlns="http://www.w3.org/2000/svg">
  <g clip-path="url(#clip0_9880_2042)">
    <path d="M25.9804 4.95298V27.1574C25.9804 27.7181 25.8427 28.8253 24.9357 29.9309C23.815 31.2971 21.9123 32.1834 19.2847 32.5647C17.1921 32.8681 15.644 33.5289 14.5518 34.5837C13.7793 35.3303 12.9894 36.6996 12.9894 36.6996C12.9894 36.6996 12.228 35.3589 11.4271 34.5837C10.3365 33.5305 8.78836 32.8697 6.69416 32.5647C4.06652 32.1834 2.16543 31.2971 1.04314 29.9309C0.136131 28.8253 0 27.7197 0 27.1574V4.95298H0.859524C1.97548 5.75677 4.11242 6.85285 6.86195 6.17297C11.6265 4.99587 12.9894 0.878418 12.9894 0.878418C12.9894 0.878418 14.3523 4.99587 19.1169 6.17455C21.8664 6.85444 24.0018 5.75836 25.1193 4.95457H25.9788L25.9804 4.95298ZM25.2016 5.81873C25.2016 5.81873 22.5977 7.85204 18.9301 6.93228C14.6531 5.86003 12.991 2.64486 12.991 2.64486C12.991 2.64486 11.3289 5.86003 7.0519 6.93228C3.38428 7.85204 0.780378 5.81873 0.780378 5.81873V27.1574C0.780378 27.8833 1.08272 30.9619 6.80655 31.7927C9.06695 32.1215 10.7543 32.8506 11.9684 34.0214C12.4053 34.4423 12.7377 34.8696 12.991 35.2636C13.2443 34.8712 13.5751 34.4423 14.012 34.0214C15.2261 32.8506 16.9151 32.1215 19.1739 31.7927C24.8977 30.9619 25.2 27.8833 25.2 27.1574V5.81873H25.2016Z" fill="white"/>
    <path d="M7.01232 30.3659C2.06887 29.6002 2.2145 27.2699 2.2145 27.1523V15.9771H23.7659V27.1523C23.7659 27.2699 23.9131 29.6002 18.9681 30.3659C14.6515 31.0347 12.9894 33.0886 12.9894 33.0886C12.9894 33.0886 11.3274 31.0347 7.01074 30.3659H7.01232ZM5.67159 17.0779H3.21491V18.4567L3.97629 18.8348V26.4851L3.2339 26.7774V27.9768L6.48046 28.8044V27.3969L5.73808 26.8251V22.2597L8.07763 29.1856L9.69537 29.6717V18.83L10.3285 18.4567V17.0779H7.302V18.4567L7.96682 18.83V24.1452L5.67318 17.0779H5.67159ZM13.5371 23.6607H14.6198L15.0235 24.2437H15.8798V21.3574H15.0235L14.604 21.9737H13.5371V18.73H14.9586L15.3306 19.8816H16.5589V17.0763H10.9744V18.4694L11.6803 18.8269V28.4914L10.9696 28.7837V29.9529L14.1861 31.1586V29.7797L13.5371 28.9998V23.656V23.6607ZM22.7655 27.9704V24.4264H21.4422L21.1763 26.5471L19.7928 26.922V18.8284L20.426 18.471V17.0779H17.2063V18.471L17.8886 18.8284V27.4557L17.0892 28.1134V29.4922L22.7671 27.9704H22.7655Z" fill="white"/>
    <path d="M2.77323 13.6915L1.79816 12.956H2.99009L3.38266 11.8234L3.7768 12.956H4.96874L3.99366 13.6915L4.35299 14.8416L3.38424 14.1586L2.41549 14.8416L2.77482 13.6915H2.77323ZM7.00279 13.6915L6.02771 12.956H7.21965L7.6138 11.8234L8.00794 12.956H9.19988L8.2248 13.6915L8.58412 14.8416L7.61538 14.1586L6.64663 14.8416L7.00596 13.6915H7.00279ZM2.77323 9.8616L1.79816 9.12611H2.99009L3.38266 7.99349L3.7768 9.12611H4.96874L3.99366 9.8616L4.35299 11.0117L3.38424 10.3286L2.41549 11.0117L2.77482 9.8616H2.77323ZM7.00279 9.8616L6.02771 9.12611H7.21965L7.6138 7.99349L8.00794 9.12611H9.19988L8.2248 9.8616L8.58412 11.0117L7.61538 10.3286L6.64663 11.0117L7.00596 9.8616H7.00279ZM23.5649 14.8416L22.5961 14.1586L21.6274 14.8416L21.9851 13.6915L21.01 12.956H22.202L22.5961 11.8234L22.9887 12.956H24.1806L23.2055 13.6915L23.5649 14.8416ZM19.3353 14.8416L18.3666 14.1586L17.3978 14.8416L17.7571 13.6915L16.7821 12.956H17.974L18.3681 11.8234L18.7623 12.956H19.9526L18.9776 13.6915L19.3369 14.8416H19.3353ZM23.5649 11.0117L22.5961 10.3286L21.6274 11.0117L21.9851 9.8616L21.01 9.12611H22.202L22.5961 7.99349L22.9887 9.12611H24.1806L23.2055 9.8616L23.5649 11.0117ZM19.3353 11.0117L18.3666 10.3286L17.3978 11.0117L17.7571 9.8616L16.7821 9.12611H17.974L18.3681 7.99349L18.7623 9.12611H19.9526L18.9776 9.8616L19.3369 11.0117H19.3353ZM15.674 6.78939C15.674 6.78939 15.1691 7.05309 14.4647 7.74886C14.623 7.83941 14.8018 7.9649 14.9047 8.05068C14.7987 8.14599 14.6894 8.24766 14.5881 8.34297C14.1291 7.96331 13.6526 7.7711 13.2822 7.68055C13.4057 7.5916 13.5355 7.50582 13.6637 7.42162C13.8632 7.47246 14.0547 7.55029 14.0547 7.55029C14.8509 6.94189 15.5395 6.67978 15.5395 6.67978C15.5395 6.67978 15.4603 6.64007 15.2466 6.64325C12.1188 6.68455 9.23629 9.02762 9.77923 13.0386C9.8378 13.4644 10.0024 14.238 10.2114 14.5763C10.281 13.9092 10.5311 12.4318 11.2719 10.8497C11.0139 10.7575 10.8002 10.7194 10.8002 10.7194C10.8762 10.5605 10.9807 10.3572 10.9807 10.3572C11.5299 10.4605 12.0143 10.6908 12.4338 11.026C12.3325 11.1896 12.2644 11.296 12.2169 11.3802C12.0697 11.2643 11.9209 11.1642 11.7563 11.0721C10.9221 12.5351 10.5359 13.9155 10.3792 14.6399C10.3871 14.6844 10.4789 14.7082 10.5517 14.6986C13.9803 14.2539 15.5854 12.4985 16.0729 10.5971C16.3942 9.35009 16.2882 8.04433 15.8592 6.9816C15.8291 6.90694 15.7706 6.78304 15.6708 6.79098L15.674 6.78939ZM12.7266 10.578C12.2802 10.2047 11.761 9.97597 11.2498 9.87907C11.2498 9.87907 11.4065 9.62332 11.4951 9.48988C12.1188 9.61379 12.6253 9.90607 12.9799 10.2079C12.8897 10.3382 12.8026 10.4636 12.725 10.578H12.7266ZM13.2901 9.78535C12.877 9.43746 12.3736 9.17694 11.8038 9.06257C11.8908 8.94978 11.9937 8.82906 12.0903 8.71786C12.5256 8.7957 13.0828 9.02603 13.5687 9.42793C13.469 9.54707 13.3772 9.66938 13.2886 9.78376L13.2901 9.78535ZM13.917 9.02921C13.4833 8.6702 12.9973 8.43828 12.4797 8.32867C12.6047 8.20953 12.733 8.10787 12.8453 8.01414C13.4912 8.16982 13.9265 8.46052 14.2225 8.70674C14.1164 8.81476 14.0135 8.92119 13.917 9.02921Z" fill="white"/>
    <path d="M57.3254 6.94799L51.2723 2.37939L38.6834 5.58662L30.6453 7.23869L34.0834 11.175L35.584 11.0781L34.9065 14.9176L30.9841 36.153L35.1962 38.4373L38.4412 23.2764C38.8607 23.8928 39.2801 24.5234 39.6996 25.1715C40.1191 25.8196 40.5069 26.428 40.8615 26.9936C41.216 27.5607 41.531 28.0547 41.8065 28.4757C42.0803 28.8966 42.2671 29.2048 42.3637 29.3986C42.5568 29.6909 42.8971 30.2326 43.3799 31.0268C43.8643 31.8211 44.3566 32.6471 44.8568 33.5049C45.357 34.3643 45.8081 35.149 46.2133 35.8623C46.617 36.5755 46.8338 37.0283 46.8671 37.2221L50.2086 31.5367L45.8508 24.4901L42.9937 20.6029L51.6617 11.8073L57.327 6.94799H57.3254ZM45.6071 11.5642C44.7032 12.5364 43.7503 13.5562 42.7499 14.6253C41.7495 15.6944 40.8773 16.6348 40.1349 17.4434L39.554 17.4926L41.2968 9.66913L48.8014 8.06631C47.7361 9.26564 46.6708 10.4316 45.6055 11.5658L45.6071 11.5642Z" fill="#D4F800"/>
    <path d="M58.0044 3.49927L53.0641 36.5898L57.471 38.0481L60.4247 23.2764L64.2506 4.95594L58.0044 3.49927Z" fill="#D4F800"/>
    <path d="M83.6192 6.0252L78.1962 1.99194L73.0628 15.6961L69.7228 25.0255L68.5594 7.62961L64.056 6.51129L64.6385 21.9152L65.4616 35.6194H66.3322L65.9935 36.833L69.8194 37.9514L75.4846 23.9072L83.6192 6.0252Z" fill="#D4F800"/>
    <path d="M114.22 23.3734L105.31 27.942L106.763 17.445L109.329 1.84733L104.438 0.00146484L100.757 18.8556L98.3847 31.2954L96.1069 32.5424L96.2066 21.2845L97.9383 20.379L99.4516 19.6245L99.4231 19.6038L99.6447 19.4879L96.3031 17.1559L96.6419 8.21413L97.3684 0.681353L90.0079 1.94423L86.6188 9.62156L86.4732 10.4968L80.436 24.649L74.7913 27.4813L76.428 31.1175L76.523 31.0698L76.5436 31.1175L80.0608 32.0769L74.1945 34.7885L75.3928 37.497L84.3743 33.3462L84.3284 33.2413L84.4518 33.2747L84.5199 30.6854L80.1874 29.2398L89.8781 24.4012L91.3154 23.8595L92.1385 36.9315L96.0609 37.7082L96.0926 34.1023L97.6581 34.9379L97.7072 35.7146L100.08 36.5899L103.469 37.7559L104.438 33.5288L106.326 32.6059L119.449 25.9977L114.219 23.3734H114.22ZM91.1238 12.5857L91.2156 19.2417L87.7111 21.0002L87.6731 20.9271L87.4309 21.0526L91.1254 12.5857H91.1238Z" fill="#D4F800"/>
    <path d="M127.537 26.2407L122.404 15.55L126.618 12.6334L126.277 16.6667L130.345 16.3267L131.119 13.8487L133.25 5.24838L128.069 2.86719L127.343 6.7543L127.1 6.31746L121.969 10.3507L119.45 12.0504L118.966 11.7105L115.528 15.4531L121.435 26.4345L123.76 31.0031L117.369 33.2382L112.332 35.2302L113.688 36.1054L116.207 38.0482L125.358 35.3763L127.973 35.084L131.507 31.3431L129.329 30.1278L127.537 26.2407Z" fill="#D4F800"/>
  </g>
  <defs>
    <clipPath id="clip0_9880_2042">
      <rect width="133.25" height="38.4375" fill="white"/>
    </clipPath>
  </defs>
</svg>
