<?xml version="1.0" encoding="UTF-8"?>
<svg id="Capa_2" data-name="Capa 2" xmlns="http://www.w3.org/2000/svg" viewBox="0 0 806.27 104.04">
  <defs>
    <style>
      .cls-1 {
        fill: #fff;
      }
    </style>
  </defs>
  <g id="Capa_1-2" data-name="Capa 1">
    <g>
      <path class="cls-1" d="M73.26,15.9c5.84,2.68,10.29,6.48,13.35,11.4,3.06,4.92,4.59,10.7,4.59,17.34s-1.53,12.42-4.59,17.34c-3.06,4.92-7.51,8.72-13.35,11.4-5.84,2.68-12.78,4.02-20.82,4.02h-21.48v24.48H0V11.88h52.44c8.04,0,14.98,1.34,20.82,4.02ZM50.4,53.28c3.08,0,5.45-.75,7.11-2.25,1.66-1.5,2.49-3.63,2.49-6.39s-.83-4.89-2.49-6.39c-1.66-1.5-4.03-2.25-7.11-2.25h-19.44v17.28h19.44Z"/>
      <path class="cls-1" d="M99.3,6.51c1.4-2.1,3.38-3.71,5.94-4.83,2.56-1.12,5.56-1.68,9-1.68s6.44.56,9,1.68c2.56,1.12,4.54,2.73,5.94,4.83,1.4,2.1,2.1,4.57,2.1,7.41s-.7,5.31-2.1,7.41c-1.4,2.1-3.38,3.71-5.94,4.83-2.56,1.12-5.56,1.68-9,1.68s-6.44-.56-9-1.68c-2.56-1.12-4.54-2.73-5.94-4.83-1.4-2.1-2.1-4.57-2.1-7.41s.7-5.31,2.1-7.41ZM114.24,34.56l15.24-3.12v70.44h-30.48V31.44l15.24,3.12Z"/>
      <path class="cls-1" d="M168.24,32.88l2.16,13.08c3.04-5,6.86-8.79,11.46-11.37,4.6-2.58,9.62-3.87,15.06-3.87,6.64,0,12.34,1.33,17.1,3.99,4.76,2.66,8.4,6.42,10.92,11.28,2.52,4.86,3.78,10.53,3.78,17.01v38.88h-30.48v-34.56c0-3.84-1.06-6.8-3.18-8.88-2.12-2.08-5.1-3.12-8.94-3.12-4.12,0-7.33,1.2-9.63,3.6-2.3,2.4-3.45,5.76-3.45,10.08v32.88h-30.48v-44.28l-4.8-24.72h30.48Z"/>
      <path class="cls-1" d="M239.4,9.48h30.48v55.98l26.28-32.58h30.96l-23.52,26.7,25.2,42.3h-33.84l-11.04-19.98-17.64,19.98h-26.88V9.48Z"/>
      <path class="cls-1" d="M367.44,55.68l-6.84-43.8h68.16c5.52,0,10.28.88,14.28,2.64,4,1.76,7.06,4.29,9.18,7.59,2.12,3.3,3.18,7.21,3.18,11.73s-1.02,8.37-3.06,11.91-5.22,6.39-9.54,8.55c6.12,1.6,10.75,4.26,13.89,7.98,3.14,3.72,4.71,8.32,4.71,13.8,0,5-1.13,9.45-3.39,13.35-2.26,3.9-5.65,6.95-10.17,9.15-4.52,2.2-10.04,3.3-16.56,3.3h-70.68l6.84-46.2ZM421.44,81.36c2.64,0,4.72-.7,6.24-2.1,1.52-1.4,2.28-3.3,2.28-5.7s-.77-4.15-2.31-5.61-3.69-2.19-6.45-2.19h-25.8l-2.4,15.6h28.44ZM395.28,45.6h21.36c2.12,0,3.87-.65,5.25-1.95,1.38-1.3,2.07-2.93,2.07-4.89s-.66-3.41-1.98-4.59c-1.32-1.18-3.1-1.77-5.34-1.77h-23.52l2.16,13.2Z"/>
      <path class="cls-1" d="M483.18,99.93c-4.64-2.66-8.19-6.41-10.65-11.25-2.46-4.84-3.69-10.48-3.69-16.92v-38.88h30.48v34.56c0,3.8.98,6.73,2.94,8.79,1.96,2.06,4.74,3.09,8.34,3.09,8.24,0,12.36-4.52,12.36-13.56v-32.88h30.48v44.28l4.8,24.72h-30.48l-2.1-12.9c-3,4.88-6.74,8.59-11.22,11.13-4.48,2.54-9.36,3.81-14.64,3.81-6.44,0-11.98-1.33-16.62-3.99Z"/>
      <path class="cls-1" d="M597,9.48v92.4h-30.48V9.48h30.48Z"/>
      <path class="cls-1" d="M638.99,9.48v92.4h-30.48V9.48h30.48Z"/>
      <path class="cls-1" d="M669.62,99.42c-6.82-3.08-12.17-7.42-16.05-13.02-3.88-5.6-5.82-12.04-5.82-19.32s1.89-13.44,5.67-18.96c3.78-5.52,8.96-9.8,15.54-12.84,6.58-3.04,13.95-4.56,22.11-4.56s15.69,1.75,21.75,5.25c6.06,3.5,10.69,8.48,13.89,14.94s4.8,14.09,4.8,22.89h-52.62c3.12,6.4,10.5,9.6,22.14,9.6,5.12,0,10.14-.66,15.06-1.98s9.5-3.22,13.74-5.7v17.28c-5.04,3.56-10.81,6.29-17.31,8.19s-13.13,2.85-19.89,2.85c-8.52,0-16.19-1.54-23.01-4.62ZM704.57,59.76c-1.04-3.16-2.67-5.55-4.89-7.17-2.22-1.62-4.97-2.43-8.25-2.43s-6.24.86-8.52,2.58-3.88,4.06-4.8,7.02h26.46Z"/>
      <path class="cls-1" d="M734.03,42l13.56-6.84,13.32-21.12h17.16v18.84h27v22.2h-27v14.16c0,3.08.35,5.47,1.05,7.17s1.97,2.93,3.81,3.69c1.84.76,4.5,1.14,7.98,1.14,5.56,0,10.68-.76,15.36-2.28v22.08c-2.92.88-6.36,1.6-10.32,2.16-3.96.56-8,.84-12.12.84-12.08,0-21.14-2.67-27.18-8.01-6.04-5.34-9.06-12.95-9.06-22.83v-18.12h-13.56v-13.08Z"/>
    </g>
  </g>
</svg>