<?xml version="1.0" encoding="UTF-8"?>
<svg id="Capa_2" data-name="Capa 2" xmlns="http://www.w3.org/2000/svg" viewBox="0 0 1491.83 104.04">
  <defs>
    <style>
      .cls-1 {
        fill: #fff;
      }
    </style>
  </defs>
  <g id="Capa_1-2" data-name="Capa 1">
    <g>
      <path class="cls-1" d="M73.26,15.9c5.84,2.68,10.29,6.48,13.35,11.4,3.06,4.92,4.59,10.7,4.59,17.34s-1.53,12.42-4.59,17.34c-3.06,4.92-7.51,8.72-13.35,11.4-5.84,2.68-12.78,4.02-20.82,4.02h-21.48v24.48H0V11.88h52.44c8.04,0,14.98,1.34,20.82,4.02ZM50.4,53.28c3.08,0,5.45-.75,7.11-2.25,1.66-1.5,2.49-3.63,2.49-6.39s-.83-4.89-2.49-6.39c-1.66-1.5-4.03-2.25-7.11-2.25h-19.44v17.28h19.44Z"/>
      <path class="cls-1" d="M99.3,6.51c1.4-2.1,3.38-3.71,5.94-4.83,2.56-1.12,5.56-1.68,9-1.68s6.44.56,9,1.68c2.56,1.12,4.54,2.73,5.94,4.83,1.4,2.1,2.1,4.57,2.1,7.41s-.7,5.31-2.1,7.41c-1.4,2.1-3.38,3.71-5.94,4.83-2.56,1.12-5.56,1.68-9,1.68s-6.44-.56-9-1.68c-2.56-1.12-4.54-2.73-5.94-4.83-1.4-2.1-2.1-4.57-2.1-7.41s.7-5.31,2.1-7.41ZM114.24,34.56l15.24-3.12v70.44h-30.48V31.44l15.24,3.12Z"/>
      <path class="cls-1" d="M168.24,32.88l2.16,13.08c3.04-5,6.86-8.79,11.46-11.37,4.6-2.58,9.62-3.87,15.06-3.87,6.64,0,12.34,1.33,17.1,3.99,4.76,2.66,8.4,6.42,10.92,11.28,2.52,4.86,3.78,10.53,3.78,17.01v38.88h-30.48v-34.56c0-3.84-1.06-6.8-3.18-8.88-2.12-2.08-5.1-3.12-8.94-3.12-4.12,0-7.33,1.2-9.63,3.6-2.3,2.4-3.45,5.76-3.45,10.08v32.88h-30.48v-44.28l-4.8-24.72h30.48Z"/>
      <path class="cls-1" d="M239.4,9.48h30.48v55.98l26.28-32.58h30.96l-23.52,26.7,25.2,42.3h-33.84l-11.04-19.98-17.64,19.98h-26.88V9.48Z"/>
      <path class="cls-1" d="M360.48,32.88l2.16,13.08c3.04-5,6.86-8.79,11.46-11.37,4.6-2.58,9.62-3.87,15.06-3.87,6.64,0,12.34,1.33,17.1,3.99,4.76,2.66,8.4,6.42,10.92,11.28,2.52,4.86,3.78,10.53,3.78,17.01v38.88h-30.48v-34.56c0-3.84-1.06-6.8-3.18-8.88-2.12-2.08-5.1-3.12-8.94-3.12-4.12,0-7.33,1.2-9.63,3.6-2.3,2.4-3.45,5.76-3.45,10.08v32.88h-30.48v-44.28l-4.8-24.72h30.48Z"/>
      <path class="cls-1" d="M450.75,99.42c-6.82-3.08-12.17-7.42-16.05-13.02-3.88-5.6-5.82-12.04-5.82-19.32s1.89-13.44,5.67-18.96c3.78-5.52,8.96-9.8,15.54-12.84,6.58-3.04,13.95-4.56,22.11-4.56s15.69,1.75,21.75,5.25c6.06,3.5,10.69,8.48,13.89,14.94s4.8,14.09,4.8,22.89h-52.62c3.12,6.4,10.5,9.6,22.14,9.6,5.12,0,10.14-.66,15.06-1.98s9.5-3.22,13.74-5.7v17.28c-5.04,3.56-10.81,6.29-17.31,8.19s-13.13,2.85-19.89,2.85c-8.52,0-16.19-1.54-23.01-4.62ZM485.7,59.76c-1.04-3.16-2.67-5.55-4.89-7.17-2.22-1.62-4.97-2.43-8.25-2.43s-6.24.86-8.52,2.58-3.88,4.06-4.8,7.02h26.46Z"/>
      <path class="cls-1" d="M601.89,92.58c-3.54,3.84-8.54,6.71-15,8.61s-14.05,2.85-22.77,2.85-16.6-1.06-23.4-3.18c-6.8-2.12-12.14-5.11-16.02-8.97-3.88-3.86-5.94-8.33-6.18-13.41h30.96c.84,2.32,2.58,4.04,5.22,5.16,2.64,1.12,6.34,1.68,11.1,1.68,3.8,0,6.71-.37,8.73-1.11,2.02-.74,3.03-1.81,3.03-3.21,0-1.28-.82-2.22-2.46-2.82-1.64-.6-4.38-1.02-8.22-1.26l-11.28-.72c-8.64-.56-15.54-1.7-20.7-3.42-5.16-1.72-8.88-4.03-11.16-6.93-2.28-2.9-3.42-6.49-3.42-10.77,0-5.4,1.71-9.92,5.13-13.56,3.42-3.64,8.24-6.35,14.46-8.13,6.22-1.78,13.57-2.67,22.05-2.67,8.04,0,15.25,1.02,21.63,3.06,6.38,2.04,11.49,4.91,15.33,8.61,3.84,3.7,6.08,7.97,6.72,12.81h-30.96c-.68-2.16-2.2-3.86-4.56-5.1-2.36-1.24-5.52-1.86-9.48-1.86-3.56,0-6.21.4-7.95,1.2-1.74.8-2.61,1.92-2.61,3.36,0,.88.22,1.56.66,2.04.44.48,1.2.85,2.28,1.11,1.08.26,2.66.45,4.74.57l15.12.96c8.52.52,15.29,1.61,20.31,3.27,5.02,1.66,8.61,3.92,10.77,6.78,2.16,2.86,3.24,6.47,3.24,10.83,0,5.64-1.77,10.38-5.31,14.22Z"/>
      <path class="cls-1" d="M696.32,92.58c-3.54,3.84-8.54,6.71-15,8.61s-14.05,2.85-22.77,2.85-16.6-1.06-23.4-3.18c-6.8-2.12-12.14-5.11-16.02-8.97-3.88-3.86-5.94-8.33-6.18-13.41h30.96c.84,2.32,2.58,4.04,5.22,5.16,2.64,1.12,6.34,1.68,11.1,1.68,3.8,0,6.71-.37,8.73-1.11,2.02-.74,3.03-1.81,3.03-3.21,0-1.28-.82-2.22-2.46-2.82-1.64-.6-4.38-1.02-8.22-1.26l-11.28-.72c-8.64-.56-15.54-1.7-20.7-3.42-5.16-1.72-8.88-4.03-11.16-6.93-2.28-2.9-3.42-6.49-3.42-10.77,0-5.4,1.71-9.92,5.13-13.56,3.42-3.64,8.24-6.35,14.46-8.13,6.22-1.78,13.57-2.67,22.05-2.67,8.04,0,15.25,1.02,21.63,3.06,6.38,2.04,11.49,4.91,15.33,8.61,3.84,3.7,6.08,7.97,6.72,12.81h-30.96c-.68-2.16-2.2-3.86-4.56-5.1-2.36-1.24-5.52-1.86-9.48-1.86-3.56,0-6.21.4-7.95,1.2-1.74.8-2.61,1.92-2.61,3.36,0,.88.22,1.56.66,2.04.44.48,1.2.85,2.28,1.11,1.08.26,2.66.45,4.74.57l15.12.96c8.52.52,15.29,1.61,20.31,3.27,5.02,1.66,8.61,3.92,10.77,6.78,2.16,2.86,3.24,6.47,3.24,10.83,0,5.64-1.77,10.38-5.31,14.22Z"/>
      <path class="cls-1" d="M762.95,98.16c-8.28-3.92-14.69-9.44-19.23-16.56-4.54-7.12-6.81-15.36-6.81-24.72s2.27-17.6,6.81-24.72c4.54-7.12,10.95-12.64,19.23-16.56,8.28-3.92,17.84-5.88,28.68-5.88s20.4,1.96,28.68,5.88c8.28,3.92,14.69,9.44,19.23,16.56s6.81,15.36,6.81,24.72-2.27,17.6-6.81,24.72c-4.54,7.12-10.95,12.64-19.23,16.56-8.28,3.92-17.84,5.88-28.68,5.88s-20.4-1.96-28.68-5.88ZM770.93,67.35c1.88,2.94,4.59,5.19,8.13,6.75,3.54,1.56,7.73,2.34,12.57,2.34s9.03-.78,12.57-2.34c3.54-1.56,6.25-3.81,8.13-6.75,1.88-2.94,2.82-6.43,2.82-10.47s-.94-7.53-2.82-10.47c-1.88-2.94-4.59-5.19-8.13-6.75-3.54-1.56-7.73-2.34-12.57-2.34s-9.03.78-12.57,2.34c-3.54,1.56-6.25,3.81-8.13,6.75-1.88,2.94-2.82,6.43-2.82,10.47s.94,7.53,2.82,10.47Z"/>
      <path class="cls-1" d="M880.43,32.88l15.48,41.16,15.96-41.16h32.4l-31.32,69h-34.8l-31.32-69h33.6Z"/>
      <path class="cls-1" d="M964.34,99.42c-6.82-3.08-12.17-7.42-16.05-13.02-3.88-5.6-5.82-12.04-5.82-19.32s1.89-13.44,5.67-18.96c3.78-5.52,8.96-9.8,15.54-12.84,6.58-3.04,13.95-4.56,22.11-4.56s15.69,1.75,21.75,5.25c6.06,3.5,10.69,8.48,13.89,14.94s4.8,14.09,4.8,22.89h-52.62c3.12,6.4,10.5,9.6,22.14,9.6,5.12,0,10.14-.66,15.06-1.98s9.5-3.22,13.74-5.7v17.28c-5.04,3.56-10.81,6.29-17.31,8.19s-13.13,2.85-19.89,2.85c-8.52,0-16.19-1.54-23.01-4.62ZM999.29,59.76c-1.04-3.16-2.67-5.55-4.89-7.17-2.22-1.62-4.97-2.43-8.25-2.43s-6.24.86-8.52,2.58-3.88,4.06-4.8,7.02h26.46Z"/>
      <path class="cls-1" d="M1062.6,32.88l2.94,17.64c2.2-6.24,5.18-11.1,8.94-14.58,3.76-3.48,8.68-5.22,14.76-5.22,2.28,0,4.92.24,7.92.72v25.8c-4.96-.88-9.32-1.32-13.08-1.32-5.24,0-9.45,1.44-12.63,4.32-3.18,2.88-4.77,7.92-4.77,15.12v26.52h-30.48v-45l-4.8-24h31.2Z"/>
      <path class="cls-1" d="M1163.46,89.1c-3.2,4.76-7.21,8.44-12.03,11.04s-10.23,3.9-16.23,3.9c-6.68,0-12.58-1.52-17.7-4.56-5.12-3.04-9.09-7.33-11.91-12.87s-4.23-11.93-4.23-19.17,1.41-13.7,4.23-19.26c2.82-5.56,6.79-9.86,11.91-12.9,5.12-3.04,11.02-4.56,17.7-4.56,5.88,0,11.22,1.24,16.02,3.72,4.8,2.48,8.8,6.02,12,10.62l4.74-35.58h31.68l-7.68,55.44,4.92,36.96h-31.68l-1.74-12.78ZM1133.73,74.46c1.1,2.08,2.63,3.71,4.59,4.89,1.96,1.18,4.2,1.77,6.72,1.77s5.15-.6,7.65-1.8c2.5-1.2,4.68-2.84,6.54-4.92,1.86-2.08,3.17-4.4,3.93-6.96-.76-2.6-2.07-4.95-3.93-7.05-1.86-2.1-4.04-3.75-6.54-4.95-2.5-1.2-5.05-1.8-7.65-1.8s-4.76.6-6.72,1.8c-1.96,1.2-3.49,2.85-4.59,4.95-1.1,2.1-1.65,4.45-1.65,7.05s.55,4.94,1.65,7.02Z"/>
      <path class="cls-1" d="M1234.32,32.88l2.94,17.64c2.2-6.24,5.18-11.1,8.94-14.58,3.76-3.48,8.68-5.22,14.76-5.22,2.28,0,4.92.24,7.92.72v25.8c-4.96-.88-9.32-1.32-13.08-1.32-5.24,0-9.45,1.44-12.63,4.32-3.18,2.88-4.77,7.92-4.77,15.12v26.52h-30.48v-45l-4.8-24h31.2Z"/>
      <path class="cls-1" d="M1276.85,6.51c1.4-2.1,3.38-3.71,5.94-4.83,2.56-1.12,5.56-1.68,9-1.68s6.44.56,9,1.68c2.56,1.12,4.54,2.73,5.94,4.83,1.4,2.1,2.1,4.57,2.1,7.41s-.7,5.31-2.1,7.41c-1.4,2.1-3.38,3.71-5.94,4.83-2.56,1.12-5.56,1.68-9,1.68s-6.44-.56-9-1.68c-2.56-1.12-4.54-2.73-5.94-4.83-1.4-2.1-2.1-4.57-2.1-7.41s.7-5.31,2.1-7.41ZM1291.79,34.56l15.24-3.12v70.44h-30.48V31.44l15.24,3.12Z"/>
      <path class="cls-1" d="M1346.03,32.88l15.48,41.16,15.96-41.16h32.4l-31.32,69h-34.8l-31.32-69h33.6Z"/>
      <path class="cls-1" d="M1429.95,99.42c-6.82-3.08-12.17-7.42-16.05-13.02-3.88-5.6-5.82-12.04-5.82-19.32s1.89-13.44,5.67-18.96c3.78-5.52,8.96-9.8,15.54-12.84,6.58-3.04,13.95-4.56,22.11-4.56s15.69,1.75,21.75,5.25c6.06,3.5,10.69,8.48,13.89,14.94s4.8,14.09,4.8,22.89h-52.62c3.12,6.4,10.5,9.6,22.14,9.6,5.12,0,10.14-.66,15.06-1.98s9.5-3.22,13.74-5.7v17.28c-5.04,3.56-10.81,6.29-17.31,8.19s-13.13,2.85-19.89,2.85c-8.52,0-16.19-1.54-23.01-4.62ZM1464.9,59.76c-1.04-3.16-2.67-5.55-4.89-7.17-2.22-1.62-4.97-2.43-8.25-2.43s-6.24.86-8.52,2.58-3.88,4.06-4.8,7.02h26.46Z"/>
    </g>
  </g>
</svg>