<?xml version="1.0" encoding="UTF-8"?>
<svg id="Capa_2" data-name="Capa 2" xmlns="http://www.w3.org/2000/svg" viewBox="0 0 863.99 104.04">
  <defs>
    <style>
      .cls-1 {
        fill: #fff;
      }
    </style>
  </defs>
  <g id="Capa_1-2" data-name="Capa 1">
    <g>
      <path class="cls-1" d="M73.26,15.9c5.84,2.68,10.29,6.48,13.35,11.4,3.06,4.92,4.59,10.7,4.59,17.34s-1.53,12.42-4.59,17.34c-3.06,4.92-7.51,8.72-13.35,11.4-5.84,2.68-12.78,4.02-20.82,4.02h-21.48v24.48H0V11.88h52.44c8.04,0,14.98,1.34,20.82,4.02ZM50.4,53.28c3.08,0,5.45-.75,7.11-2.25,1.66-1.5,2.49-3.63,2.49-6.39s-.83-4.89-2.49-6.39c-1.66-1.5-4.03-2.25-7.11-2.25h-19.44v17.28h19.44Z"/>
      <path class="cls-1" d="M99.3,6.51c1.4-2.1,3.38-3.71,5.94-4.83,2.56-1.12,5.56-1.68,9-1.68s6.44.56,9,1.68c2.56,1.12,4.54,2.73,5.94,4.83,1.4,2.1,2.1,4.57,2.1,7.41s-.7,5.31-2.1,7.41c-1.4,2.1-3.38,3.71-5.94,4.83-2.56,1.12-5.56,1.68-9,1.68s-6.44-.56-9-1.68c-2.56-1.12-4.54-2.73-5.94-4.83-1.4-2.1-2.1-4.57-2.1-7.41s.7-5.31,2.1-7.41ZM114.24,34.56l15.24-3.12v70.44h-30.48V31.44l15.24,3.12Z"/>
      <path class="cls-1" d="M168.24,32.88l2.16,13.08c3.04-5,6.86-8.79,11.46-11.37,4.6-2.58,9.62-3.87,15.06-3.87,6.64,0,12.34,1.33,17.1,3.99,4.76,2.66,8.4,6.42,10.92,11.28,2.52,4.86,3.78,10.53,3.78,17.01v38.88h-30.48v-34.56c0-3.84-1.06-6.8-3.18-8.88-2.12-2.08-5.1-3.12-8.94-3.12-4.12,0-7.33,1.2-9.63,3.6-2.3,2.4-3.45,5.76-3.45,10.08v32.88h-30.48v-44.28l-4.8-24.72h30.48Z"/>
      <path class="cls-1" d="M239.4,9.48h30.48v55.98l26.28-32.58h30.96l-23.52,26.7,25.2,42.3h-33.84l-11.04-19.98-17.64,19.98h-26.88V9.48Z"/>
      <path class="cls-1" d="M420.72,89.94c-3.24,4.52-7.22,8-11.94,10.44-4.72,2.44-9.98,3.66-15.78,3.66-6.68,0-12.58-1.52-17.7-4.56-5.12-3.04-9.09-7.33-11.91-12.87s-4.23-11.93-4.23-19.17,1.41-13.7,4.23-19.26c2.82-5.56,6.79-9.86,11.91-12.9,5.12-3.04,11.02-4.56,17.7-4.56,5.8,0,11.07,1.2,15.81,3.6,4.74,2.4,8.71,5.84,11.91,10.32l1.68-11.76h31.68l-4.8,34.44,4.8,34.56h-31.68l-1.68-11.94ZM391.53,74.46c1.1,2.08,2.63,3.71,4.59,4.89,1.96,1.18,4.2,1.77,6.72,1.77s5.15-.6,7.65-1.8c2.5-1.2,4.68-2.84,6.54-4.92,1.86-2.08,3.17-4.4,3.93-6.96-.76-2.6-2.07-4.95-3.93-7.05-1.86-2.1-4.04-3.75-6.54-4.95-2.5-1.2-5.05-1.8-7.65-1.8s-4.76.6-6.72,1.8c-1.96,1.2-3.49,2.85-4.59,4.95-1.1,2.1-1.65,4.45-1.65,7.05s.55,4.94,1.65,7.02Z"/>
      <path class="cls-1" d="M632.15,101.88h-29.4v-63.18l-24.6,63.18h-30.6l-24.6-62.88v62.88h-29.4V11.88h47.88l21.54,58.68,21.3-58.68h47.88v90Z"/>
      <path class="cls-1" d="M662.75,99.48c-6.88-3.04-12.22-7.33-16.02-12.87-3.8-5.54-5.7-11.93-5.7-19.17s1.9-13.7,5.7-19.26c3.8-5.56,9.14-9.86,16.02-12.9s14.84-4.56,23.88-4.56,17,1.52,23.88,4.56c6.88,3.04,12.22,7.34,16.02,12.9,3.8,5.56,5.7,11.98,5.7,19.26s-1.9,13.63-5.7,19.17c-3.8,5.54-9.14,9.83-16.02,12.87-6.88,3.04-14.84,4.56-23.88,4.56s-17-1.52-23.88-4.56ZM675.66,78.06c2.6,2.52,6.26,3.78,10.98,3.78s8.38-1.26,10.98-3.78c2.6-2.52,3.9-6.06,3.9-10.62s-1.3-8.22-3.9-10.74c-2.6-2.52-6.26-3.78-10.98-3.78s-8.38,1.26-10.98,3.78c-2.6,2.52-3.9,6.1-3.9,10.74s1.3,8.1,3.9,10.62Z"/>
      <path class="cls-1" d="M771.47,9.48v92.4h-30.48V9.48h30.48Z"/>
      <path class="cls-1" d="M802.1,99.42c-6.82-3.08-12.17-7.42-16.05-13.02-3.88-5.6-5.82-12.04-5.82-19.32s1.89-13.44,5.67-18.96c3.78-5.52,8.96-9.8,15.54-12.84,6.58-3.04,13.95-4.56,22.11-4.56s15.69,1.75,21.75,5.25c6.06,3.5,10.69,8.48,13.89,14.94s4.8,14.09,4.8,22.89h-52.62c3.12,6.4,10.5,9.6,22.14,9.6,5.12,0,10.14-.66,15.06-1.98s9.5-3.22,13.74-5.7v17.28c-5.04,3.56-10.81,6.29-17.31,8.19s-13.13,2.85-19.89,2.85c-8.52,0-16.19-1.54-23.01-4.62ZM837.05,59.76c-1.04-3.16-2.67-5.55-4.89-7.17-2.22-1.62-4.97-2.43-8.25-2.43s-6.24.86-8.52,2.58-3.88,4.06-4.8,7.02h26.46Z"/>
    </g>
  </g>
</svg>