<?xml version="1.0" encoding="UTF-8"?>
<svg id="Capa_2" data-name="Capa 2" xmlns="http://www.w3.org/2000/svg" viewBox="0 0 689.04 121.68">
  <defs>
    <style>
      .cls-1 {
        fill: #fff;
      }
    </style>
  </defs>
  <g id="Capa_1-2" data-name="Capa 1">
    <g>
      <path class="cls-1" d="M73.26,15.9c5.84,2.68,10.29,6.48,13.35,11.4,3.06,4.92,4.59,10.7,4.59,17.34s-1.53,12.42-4.59,17.34c-3.06,4.92-7.51,8.72-13.35,11.4-5.84,2.68-12.78,4.02-20.82,4.02h-21.48v24.48H0V11.88h52.44c8.04,0,14.98,1.34,20.82,4.02ZM50.4,53.28c3.08,0,5.45-.75,7.11-2.25,1.66-1.5,2.49-3.63,2.49-6.39s-.83-4.89-2.49-6.39c-1.66-1.5-4.03-2.25-7.11-2.25h-19.44v17.28h19.44Z"/>
      <path class="cls-1" d="M99.3,6.51c1.4-2.1,3.38-3.71,5.94-4.83,2.56-1.12,5.56-1.68,9-1.68s6.44.56,9,1.68c2.56,1.12,4.54,2.73,5.94,4.83,1.4,2.1,2.1,4.57,2.1,7.41s-.7,5.31-2.1,7.41c-1.4,2.1-3.38,3.71-5.94,4.83-2.56,1.12-5.56,1.68-9,1.68s-6.44-.56-9-1.68c-2.56-1.12-4.54-2.73-5.94-4.83-1.4-2.1-2.1-4.57-2.1-7.41s.7-5.31,2.1-7.41ZM114.24,34.56l15.24-3.12v70.44h-30.48V31.44l15.24,3.12Z"/>
      <path class="cls-1" d="M168.24,32.88l2.16,13.08c3.04-5,6.86-8.79,11.46-11.37,4.6-2.58,9.62-3.87,15.06-3.87,6.64,0,12.34,1.33,17.1,3.99,4.76,2.66,8.4,6.42,10.92,11.28,2.52,4.86,3.78,10.53,3.78,17.01v38.88h-30.48v-34.56c0-3.84-1.06-6.8-3.18-8.88-2.12-2.08-5.1-3.12-8.94-3.12-4.12,0-7.33,1.2-9.63,3.6-2.3,2.4-3.45,5.76-3.45,10.08v32.88h-30.48v-44.28l-4.8-24.72h30.48Z"/>
      <path class="cls-1" d="M239.4,9.48h30.48v55.98l26.28-32.58h30.96l-23.52,26.7,25.2,42.3h-33.84l-11.04-19.98-17.64,19.98h-26.88V9.48Z"/>
      <path class="cls-1" d="M388.86,89.1c-3.2,4.76-7.21,8.44-12.03,11.04s-10.23,3.9-16.23,3.9c-6.68,0-12.58-1.52-17.7-4.56-5.12-3.04-9.09-7.33-11.91-12.87s-4.23-11.93-4.23-19.17,1.41-13.7,4.23-19.26c2.82-5.56,6.79-9.86,11.91-12.9,5.12-3.04,11.02-4.56,17.7-4.56,5.88,0,11.22,1.24,16.02,3.72,4.8,2.48,8.8,6.02,12,10.62l4.74-35.58h31.68l-7.68,55.44,4.92,36.96h-31.68l-1.74-12.78ZM359.13,74.46c1.1,2.08,2.63,3.71,4.59,4.89,1.96,1.18,4.2,1.77,6.72,1.77s5.15-.6,7.65-1.8c2.5-1.2,4.68-2.84,6.54-4.92,1.86-2.08,3.17-4.4,3.93-6.96-.76-2.6-2.07-4.95-3.93-7.05-1.86-2.1-4.04-3.75-6.54-4.95-2.5-1.2-5.05-1.8-7.65-1.8s-4.76.6-6.72,1.8c-1.96,1.2-3.49,2.85-4.59,4.95-1.1,2.1-1.65,4.45-1.65,7.05s.55,4.94,1.65,7.02Z"/>
      <path class="cls-1" d="M459.72,32.88l2.94,17.64c2.2-6.24,5.18-11.1,8.94-14.58,3.76-3.48,8.68-5.22,14.76-5.22,2.28,0,4.92.24,7.92.72v25.8c-4.96-.88-9.32-1.32-13.08-1.32-5.24,0-9.45,1.44-12.63,4.32-3.18,2.88-4.77,7.92-4.77,15.12v26.52h-30.48v-45l-4.8-24h31.2Z"/>
      <path class="cls-1" d="M519.72,99.48c-6.88-3.04-12.22-7.33-16.02-12.87-3.8-5.54-5.7-11.93-5.7-19.17s1.9-13.7,5.7-19.26c3.8-5.56,9.14-9.86,16.02-12.9s14.84-4.56,23.88-4.56,17,1.52,23.88,4.56c6.88,3.04,12.22,7.34,16.02,12.9,3.8,5.56,5.7,11.98,5.7,19.26s-1.9,13.63-5.7,19.17c-3.8,5.54-9.14,9.83-16.02,12.87-6.88,3.04-14.84,4.56-23.88,4.56s-17-1.52-23.88-4.56ZM532.62,78.06c2.6,2.52,6.26,3.78,10.98,3.78s8.38-1.26,10.98-3.78c2.6-2.52,3.9-6.06,3.9-10.62s-1.3-8.22-3.9-10.74c-2.6-2.52-6.26-3.78-10.98-3.78s-8.38,1.26-10.98,3.78c-2.6,2.52-3.9,6.1-3.9,10.74s1.3,8.1,3.9,10.62Z"/>
      <path class="cls-1" d="M628.44,32.88v10.5c3.2-4.08,7.08-7.21,11.64-9.39,4.56-2.18,9.6-3.27,15.12-3.27,6.68,0,12.58,1.52,17.7,4.56,5.12,3.04,9.09,7.34,11.91,12.9,2.82,5.56,4.23,11.98,4.23,19.26s-1.41,13.63-4.23,19.17c-2.82,5.54-6.79,9.83-11.91,12.87-5.12,3.04-11.02,4.56-17.7,4.56-5.56,0-10.61-1.11-15.15-3.33s-8.41-5.39-11.61-9.51v30.48h-30.48V32.88h30.48ZM631.17,74.4c1.86,2.08,4.04,3.72,6.54,4.92,2.5,1.2,5.05,1.8,7.65,1.8s4.76-.59,6.72-1.77c1.96-1.18,3.49-2.81,4.59-4.89,1.1-2.08,1.65-4.42,1.65-7.02s-.55-4.95-1.65-7.05c-1.1-2.1-2.63-3.75-4.59-4.95-1.96-1.2-4.2-1.8-6.72-1.8s-5.15.6-7.65,1.8c-2.5,1.2-4.68,2.85-6.54,4.95-1.86,2.1-3.17,4.45-3.93,7.05.76,2.56,2.07,4.88,3.93,6.96Z"/>
    </g>
  </g>
</svg>