<?xml version="1.0" encoding="UTF-8"?>
<svg id="Capa_2" data-name="Capa 2" xmlns="http://www.w3.org/2000/svg" viewBox="0 0 269.24 57.53">
  <defs>
    <style>
      .cls-1 {
        fill: #fff;
      }

      .cls-2 {
        fill: #e83271;
      }
    </style>
  </defs>
  <g id="Capa_1-2" data-name="Capa 1">
    <path class="cls-1" d="M269.24,41.6c-1.03,1.26-2.01,2.58-3.11,3.78-2.33,2.52-5.09,4.32-8.65,4.42-4.75.13-8.04-2.86-7.95-7.59.06-3.05.73-6.1,1.22-9.13.31-1.92.79-3.8,1.22-5.85-1.52,0-2.92,0-4.49,0,.4-1.9.74-3.65,1.15-5.38.05-.22.5-.46.78-.48.86-.06,1.73-.08,2.59-.01.91.08,1.29-.23,1.47-1.16.64-3.29,1.39-6.56,2.11-9.89,2.19,0,4.33,0,6.64,0-.4,1.88-.79,3.69-1.18,5.51-.38,1.78-.75,3.56-1.16,5.49,2.71,0,5.24,0,7.98,0-.41,1.92-.77,3.69-1.22,5.44-.05.21-.6.41-.92.41-2.08.04-4.16.05-6.24.01-.68-.01-.98.23-1.1.89-.73,3.71-1.5,7.41-2.22,11.13-.13.68-.16,1.41-.1,2.1.16,2.07,1.71,2.99,3.45,1.86,1.42-.93,2.58-2.24,3.83-3.42.42-.4.75-.89,1.19-1.42,1.58,1.03,3.15,2.04,4.71,3.06v.23ZM170.85,49.69c3.24-.58,5.48-2.57,7.35-5.27.16.67.24,1.13.37,1.58.88,2.9,3.41,4.35,6.4,3.76,2.3-.46,3.93-1.84,5.31-3.62.36-.47.7-.96,1.08-1.5,3.22,6.81,12.77,7.24,17.77-.45.11.5.19.9.28,1.3.57,2.44,2.29,4.2,4.66,4.28,1.4.05,2.95-.19,4.18-.8,1.59-.79,2.93-2.09,4.43-3.21,1.23,1.68,2.88,3.03,5.06,3.6,4.89,1.28,9.19,0,12.83-3.33,4.28-3.92,6.2-8.96,6.2-14.68,0-4.95-2.66-8.81-6.81-10.05-3.88-1.16-7.58-.52-10.91,1.68-5.32,3.53-7.8,8.74-8.25,14.94-.18,2.54-1.81,3.96-3.53,5.35-.79.64-1.48.33-1.55-.7-.09-1.27-.08-2.59.17-3.83,1.51-7.46,3.1-14.9,4.66-22.34.57-2.73,1.16-5.46,1.77-8.31-2.1,0-4.06-.03-6.02.04-.28.01-.71.43-.78.73-.6,2.54-1.12,5.11-1.67,7.66-.45,2.08-.91,4.15-1.38,6.31-3.23-2.33-6.59-2.53-10.09-1.37-5.38,1.78-8.62,5.68-10.72,10.77-1.21,2.95-2.57,5.85-3.99,8.71-.45.91-1.25,1.7-2.05,2.36-.79.65-1.42.27-1.46-.75-.02-.62,0-1.26.12-1.87,1.05-4.96,2.1-9.92,3.22-14.87.17-.76-.02-1.19-.56-1.6-3.64-2.74-7.76-3.98-12.26-3.33-6.84,1-12.6,6.6-14,13.33-.27,1.3-.46,2.61-.79,3.9-.55,2.21-1.62,4.08-3.83,5.03-.97.42-2.04.47-2.57-.61-1.05-2.16-1.96-4.38-2.95-6.61,5.21-3.09,8.76-7.39,11.27-12.76-2.16-1.03-4.27-2.04-6.47-3.08-2.44,4.95-5.77,8.93-11.41,10.79,1.65-7.77,3.24-15.26,4.86-22.88-2.11,0-4.03.03-5.95,0-.73-.01-.98.24-1.13.97-2.39,11.34-4.82,22.67-7.24,34-.44,2.08-.88,4.16-1.31,6.22.22.08.29.12.36.12,1.26.01,2.51.02,3.77.02,2.76,0,2.74,0,3.29-2.77.54-2.66,1.14-5.31,1.71-7.98.73-.09,1.35-.16,2-.24.21.48.4.9.58,1.33.84,1.93,1.58,3.91,2.53,5.79,1.67,3.31,4.96,5.08,8.5,4.67,2.5-.29,4.61-1.43,6.51-3.22,2.29,2.68,5.14,3.4,8.43,2.81M201.81,28.38c2.56-2.09,5.91-2.33,8.69-.76.58.33.8.63.64,1.38-.88,4.12-2.14,8.07-4.79,11.44-1.13,1.44-2.47,2.62-4.3,3.11-2.58.68-4.52-.59-4.9-3.23-.09-.62-.09-1.25-.13-1.84.27-4.03,1.62-7.51,4.79-10.1M177.01,38.7c-1.28,2.31-2.85,4.32-5.64,4.93-2.56.57-4.61-.77-4.84-3.39-.44-4.98,1.2-9.19,5.3-12.2,2.66-1.95,5.57-1.99,8.55-.41-.97,3.78-1.47,7.64-3.38,11.07M235.47,42.33c-.53.44-1.18.8-1.83,1.04-3.24,1.2-5.93-.48-6.14-3.91-.27-4.43,1.12-8.27,4.59-11.15.88-.73,2.14-1.18,3.29-1.38,2.36-.41,4.3,1.27,4.63,3.76.07.54.08,1.09.12,1.71-.27,3.87-1.51,7.35-4.66,9.93M78.85,37.64c1.72-.02,3.46-.12,5.15-.39,7.86-1.23,14.35-6.19,14.76-15.3.26-5.88-2.12-10.86-8.26-13.19-3.01-1.15-6.16-1.49-9.36-1.18-2.34.23-4.66.59-7,.83-.89.09-1.24.5-1.42,1.35-2.3,10.91-4.63,21.82-6.95,32.73-.47,2.23-.93,4.47-1.41,6.75,2.3,0,4.44,0,6.64,0,.85-3.96,1.68-7.88,2.53-11.83,1.88.09,3.6.25,5.32.23M77.5,18.65c.27-1.3.53-2.6.87-3.88.09-.32.45-.77.74-.82,2.88-.45,5.77-.62,8.59.39,2.9,1.05,4.49,3.41,4.58,6.7.14,4.85-2.82,8.57-7.86,9.87-2.41.62-6.86.81-9.6.38.9-4.27,1.79-8.46,2.68-12.65M122.66,29.95c-.36-4.39-3.42-7.93-7.69-8.82-3.29-.69-6.46-.2-9.28,1.57-6.58,4.12-9.3,10.33-8.82,17.85.34,5.34,3.65,8.61,8.79,9.3,3.36.45,6.49-.41,9.23-2.38,5.29-3.81,7.55-9.18,7.89-15.22-.05-.97-.07-1.64-.12-2.3M112.06,41.87c-.95.85-2.22,1.49-3.45,1.84-2.27.65-4.43-.8-4.99-3.09-1.01-4.1,1.3-10.25,4.89-12.53,1-.64,2.32-1.04,3.51-1.06,2.38-.03,3.9,1.72,4.07,4.26.02.35,0,.7,0,1.05-.17,3.67-1.23,7.01-4.03,9.52M127.54,49.29c1.28.1,1.72-.34,1.98-1.58,2.43-11.69,4.94-23.36,7.42-35.04.31-1.46.59-2.93.9-4.47-2.31,0-4.42,0-6.62,0-2.91,13.64-5.81,27.25-8.75,41.05,1.79,0,3.44-.1,5.07.03"/>
    <path class="cls-2" d="M24.4,57.49c-1.47-.49-2.95-.95-4.4-1.49-.5-.18-.97-.51-1.4-.84-2.91-2.2-2.89-5.3.04-7.5,4.15-3.11,12.25-2.98,16.36.27,2.63,2.08,2.71,4.86.16,7.03-1.53,1.3-3.38,1.91-5.31,2.31-.25.05-.49.16-.74.25-1.57-.01-3.14-.03-4.71-.04"/>
    <path class="cls-2" d="M39.13,13.24c.1-.59.15-1.29.33-1.97.73-2.67,2.89-3.84,5.52-2.9,3.72,1.33,5.86,4.28,7.44,7.68,1.06,2.29,1.62,4.7,1.19,7.26-.49,2.98-2.82,4.52-5.63,3.44-1.38-.53-2.73-1.4-3.8-2.42-3.12-2.96-4.78-6.67-5.06-11.09"/>
    <path class="cls-2" d="M38.88,44.16c.59-5.17,2.88-9.61,7.68-12.46.95-.57,2.23-.85,3.34-.83,1.94.04,3.31,1.57,3.6,3.71.57,4.19-1.02,7.75-3.56,10.91-.99,1.23-2.25,2.3-3.55,3.19-1.57,1.06-3.4,1.59-5.21.61-1.9-1.03-2.14-2.94-2.3-5.11"/>
    <path class="cls-2" d="M0,35.83c.08-1.96.39-3.81,2.25-4.88,1.92-1.1,3.79-.46,5.4.68,4.48,3.15,6.92,7.51,6.92,13,0,4.19-3.26,6.08-6.92,4.05-4.04-2.24-6.22-5.92-7.31-10.3-.21-.82-.23-1.69-.34-2.54"/>
    <path class="cls-2" d="M.23,21.14c.59-5.46,2.9-9.94,7.88-12.64,3.47-1.88,6.68-.04,6.7,3.89.03,5.86-2.61,10.43-7.66,13.48-.94.57-2.24.85-3.34.78-2.08-.12-3.39-1.78-3.58-4.11-.04-.47,0-.94,0-1.4"/>
    <path class="cls-2" d="M26.74,0c3.65.12,6.73.69,9.16,3.04,2.08,2.02,1.92,4.64-.31,6.49-1.64,1.36-3.59,2.05-5.66,2.37-3.28.51-6.48.24-9.49-1.26-.79-.39-1.54-.94-2.18-1.56-2-1.91-1.97-4.35.05-6.25,1.59-1.49,3.58-2.2,5.68-2.56,1.03-.18,2.09-.22,2.74-.28"/>
  </g>
</svg>